<?xml version="1.0" encoding="UTF-8" ?>
<!DOCTYPE svg PUBLIC "-//W3C//DTD SVG 1.1//EN" "http://www.w3.org/Graphics/SVG/1.1/DTD/svg11.dtd">
<svg width="1920pt" height="1920pt" viewBox="0 0 1920 1920" version="1.1" xmlns="http://www.w3.org/2000/svg">
<g id="#754d2aff">
<path fill="#754d2a" stroke="#754d2a" stroke-width="0.09375" opacity="1.00" d=" M 0.00 0.00 L 80.73 0.00 C 53.90 7.89 26.87 15.06 0.00 22.82 L 0.00 0.00 Z" />
<path fill="#754d2a" stroke="#754d2a" stroke-width="0.09375" opacity="1.00" d=" M 263.16 0.00 L 306.85 0.00 C 293.19 4.98 279.30 9.30 265.56 14.03 C 264.50 9.40 263.52 4.74 263.16 0.00 Z" />
<path fill="#754d2a" stroke="#754d2a" stroke-width="0.09375" opacity="1.00" d=" M 767.62 0.00 L 876.68 0.00 C 865.65 13.20 854.42 26.22 843.36 39.39 C 842.11 40.78 841.03 42.42 839.41 43.39 C 815.46 28.96 791.58 14.41 767.62 0.00 Z" />
<path fill="#754d2a" stroke="#754d2a" stroke-width="0.09375" opacity="1.00" d=" M 1048.71 0.00 L 1066.27 0.00 C 1068.80 2.73 1072.66 2.12 1075.35 0.00 L 1093.04 0.00 C 1090.56 25.13 1086.90 50.12 1084.30 75.23 C 1082.29 92.90 1079.58 110.50 1078.28 128.25 C 1077.17 139.33 1076.27 151.33 1069.08 160.42 C 1057.81 158.49 1046.44 157.15 1035.10 155.75 C 1031.09 147.87 1030.74 138.81 1031.69 130.17 C 1032.91 118.38 1034.77 106.65 1036.77 94.97 C 1039.02 82.73 1039.66 70.28 1041.27 57.95 C 1043.45 38.60 1046.14 19.31 1048.71 0.00 Z" />
<path fill="#754d2a" stroke="#754d2a" stroke-width="0.09375" opacity="1.00" d=" M 1340.01 0.00 L 1426.18 0.00 C 1430.23 10.23 1434.61 20.34 1438.46 30.64 C 1391.47 58.76 1344.75 87.32 1297.83 115.56 C 1280.49 96.05 1263.32 76.40 1246.06 56.83 C 1277.34 37.83 1308.65 18.86 1340.01 0.00 Z" />
<path fill="#754d2a" stroke="#754d2a" stroke-width="0.09375" opacity="1.00" d=" M 1788.28 0.00 L 1920.00 0.00 L 1920.00 22.74 C 1861.22 39.11 1802.50 55.75 1743.70 72.06 C 1740.27 59.73 1744.88 46.88 1751.63 36.56 C 1761.24 22.07 1774.37 10.27 1788.28 0.00 Z" />
<path fill="#754d2a" stroke="#754d2a" stroke-width="0.09375" opacity="1.00" d=" M 1669.47 98.69 C 1694.17 97.48 1718.88 96.51 1743.59 95.34 C 1746.94 103.96 1750.53 112.49 1753.89 121.10 C 1755.47 125.34 1757.75 129.41 1758.06 134.02 C 1730.18 140.47 1702.23 146.68 1674.33 153.08 C 1672.50 134.97 1671.13 116.82 1669.47 98.69 Z" />
<path fill="#754d2a" stroke="#754d2a" stroke-width="0.09375" opacity="1.00" d=" M 420.49 197.32 C 423.90 188.91 431.82 182.24 440.92 181.02 C 448.06 179.83 455.54 182.26 460.89 187.08 C 464.93 190.74 467.10 195.88 469.24 200.78 C 473.66 211.66 479.08 222.09 484.20 232.65 C 497.71 260.62 510.98 288.70 524.15 316.83 C 528.11 325.15 533.98 332.82 535.52 342.09 C 536.42 346.59 534.25 350.81 534.09 355.25 C 527.89 358.31 521.82 361.64 515.54 364.55 C 512.29 363.22 508.74 362.38 506.01 360.04 C 500.06 355.24 497.05 348.00 493.67 341.36 C 485.87 325.22 476.08 310.16 467.53 294.42 C 459.26 279.29 449.54 265.00 441.15 249.93 C 435.30 239.40 429.17 229.03 423.53 218.39 C 420.27 212.00 417.80 204.36 420.49 197.32 M 443.33 200.47 C 439.45 202.04 437.15 207.11 438.77 211.03 C 440.27 213.77 442.52 216.02 443.94 218.82 C 446.38 223.22 449.27 227.96 454.05 230.09 C 456.76 231.59 459.25 228.61 459.19 226.05 C 459.92 218.89 455.11 212.93 454.19 206.05 C 453.66 200.95 447.67 198.92 443.33 200.47 Z" />
<path fill="#754d2a" stroke="#754d2a" stroke-width="0.09375" opacity="1.00" d=" M 1776.97 452.97 C 1781.91 439.47 1790.80 427.62 1802.01 418.68 C 1848.19 448.81 1887.25 488.79 1920.00 532.93 L 1920.00 576.58 C 1915.80 580.48 1912.44 585.45 1907.30 588.19 C 1904.55 589.76 1901.36 589.26 1898.47 588.55 C 1885.92 567.75 1870.20 549.07 1853.86 531.16 C 1829.04 504.31 1802.25 479.37 1776.97 452.97 Z" />
<path fill="#754d2a" stroke="#754d2a" stroke-width="0.09375" opacity="1.00" d=" M 1464.94 499.95 C 1469.40 493.89 1474.08 488.00 1478.85 482.17 C 1496.88 489.11 1514.87 496.17 1532.92 503.08 C 1505.73 528.84 1478.10 554.13 1450.83 579.80 C 1438.76 590.77 1427.08 602.20 1414.90 613.05 C 1403.67 612.36 1392.34 610.96 1381.10 609.79 C 1381.18 609.05 1381.34 607.58 1381.42 606.84 C 1386.52 600.66 1391.18 594.13 1396.34 587.99 C 1403.22 587.96 1410.21 589.59 1416.98 589.09 C 1441.14 564.89 1464.79 540.13 1488.85 515.82 C 1491.21 513.43 1493.47 510.93 1495.80 508.51 C 1485.51 505.65 1475.19 502.92 1464.94 499.95 Z" />
<path fill="#754d2a" stroke="#754d2a" stroke-width="0.09375" opacity="1.00" d=" M 0.00 532.57 C 25.88 566.61 49.19 602.54 75.67 636.14 C 75.80 638.34 76.25 640.78 75.05 642.80 C 68.54 653.90 63.90 665.98 57.67 677.24 C 55.55 670.87 49.38 667.58 45.60 662.43 C 40.79 655.05 44.37 646.09 44.79 638.06 C 45.70 630.32 41.81 623.27 38.52 616.57 C 30.13 600.65 18.49 586.77 9.01 571.52 C 5.56 572.24 2.56 574.15 0.00 576.51 L 0.00 532.57 Z" />
<path fill="#754d2a" stroke="#754d2a" stroke-width="0.09375" opacity="1.00" d=" M 234.69 571.74 C 248.73 561.17 266.53 556.22 283.98 556.15 C 304.48 555.57 324.82 560.97 343.25 569.73 C 360.08 577.86 375.56 589.13 387.56 603.53 C 398.11 616.32 405.89 632.12 406.19 648.96 C 406.52 668.81 400.44 688.16 400.82 708.03 C 401.04 714.34 401.07 720.83 402.77 726.94 C 416.54 738.88 430.52 750.91 441.32 765.73 C 449.16 776.59 455.84 789.23 455.87 802.95 C 456.40 806.25 453.44 808.36 451.48 810.51 C 380.97 773.60 310.18 737.21 239.57 700.50 C 188.36 673.98 137.21 647.35 85.96 620.92 C 87.98 613.48 91.98 605.93 98.61 601.69 C 114.85 596.61 132.08 600.01 148.61 601.64 C 167.37 603.74 187.31 606.71 205.32 599.32 C 218.46 594.21 223.88 579.87 234.69 571.74 M 257.01 587.05 C 243.90 589.76 231.82 597.82 224.95 609.40 C 244.04 615.84 262.74 623.40 280.94 632.02 C 315.11 648.25 347.83 667.83 377.13 691.84 C 382.15 682.88 383.57 672.04 380.86 662.11 C 376.81 646.15 366.27 632.69 354.45 621.61 C 340.04 608.44 322.97 598.19 304.58 591.65 C 289.41 586.46 272.89 583.63 257.01 587.05 Z" />
<path fill="#754d2a" stroke="#754d2a" stroke-width="0.09375" opacity="1.00" d=" M 1009.42 664.61 C 1020.22 663.13 1031.60 663.81 1041.70 668.17 C 1046.62 670.25 1050.50 674.43 1052.51 679.34 C 1053.98 685.01 1049.87 689.87 1047.33 694.52 C 1045.93 696.84 1045.13 700.47 1047.53 702.43 C 1054.00 708.38 1062.26 711.92 1070.57 714.52 C 1089.23 720.20 1108.88 721.70 1127.48 727.65 C 1127.96 728.71 1128.47 729.79 1128.99 730.87 C 1054.31 730.25 979.66 728.36 904.98 727.57 C 905.30 725.56 905.86 723.60 906.60 721.72 C 937.11 715.28 968.48 711.95 997.88 701.12 C 1000.47 693.98 994.17 688.70 990.09 683.86 C 987.32 680.07 990.91 675.98 992.76 672.69 C 996.75 667.68 1003.34 665.68 1009.42 664.61 Z" />
<path fill="#754d2a" stroke="#754d2a" stroke-width="0.09375" opacity="1.00" d=" M 1724.37 683.35 C 1731.43 670.02 1748.92 662.85 1763.07 668.81 C 1769.72 671.63 1774.72 677.28 1778.53 683.27 C 1781.33 688.03 1781.77 693.68 1781.53 699.08 C 1780.89 711.73 1781.30 724.39 1781.17 737.05 C 1780.46 750.68 1780.62 764.34 1780.62 777.99 C 1780.29 805.01 1779.44 832.02 1778.53 859.03 C 1778.13 864.95 1778.43 870.90 1778.28 876.84 C 1777.79 882.82 1773.89 887.75 1769.97 892.00 C 1768.84 893.32 1767.24 894.08 1765.67 894.68 C 1757.67 894.91 1749.66 894.68 1741.67 894.80 C 1737.26 893.29 1734.25 889.01 1731.84 885.17 C 1728.20 879.49 1728.85 872.48 1728.47 866.05 C 1728.02 837.99 1725.54 810.01 1724.59 781.96 C 1723.40 758.34 1722.84 734.69 1722.08 711.05 C 1721.66 701.85 1719.68 691.83 1724.37 683.35 M 1750.43 688.46 C 1747.21 689.59 1744.92 692.43 1743.38 695.35 C 1739.21 703.89 1738.55 713.87 1740.36 723.12 C 1741.50 728.58 1743.48 734.47 1748.15 737.92 C 1750.62 739.88 1754.18 739.54 1756.55 737.57 C 1761.50 733.51 1763.27 726.91 1764.29 720.86 C 1765.41 711.55 1764.76 701.48 1759.68 693.35 C 1757.79 690.21 1754.24 687.60 1750.43 688.46 Z" />
<path fill="#754d2a" stroke="#754d2a" stroke-width="0.09375" opacity="1.00" d=" M 1330.38 817.89 C 1349.99 817.29 1369.63 817.66 1389.23 816.83 C 1391.62 824.08 1393.82 831.39 1396.16 838.66 C 1385.16 837.60 1374.14 836.78 1363.14 835.75 C 1378.32 870.25 1393.80 904.63 1408.98 939.13 C 1415.03 940.90 1421.13 942.50 1427.18 944.29 C 1428.04 944.58 1428.91 944.88 1429.80 945.20 C 1432.61 953.95 1435.24 962.75 1438.12 971.48 C 1426.32 968.40 1414.54 965.22 1402.72 962.24 C 1383.33 924.18 1364.42 885.88 1345.26 847.70 C 1340.30 837.76 1335.04 827.97 1330.38 817.89 Z" />
<path fill="#754d2a" stroke="#754d2a" stroke-width="0.09375" opacity="1.00" d=" M 497.62 931.54 C 501.41 929.27 505.97 930.76 510.07 931.16 C 518.77 932.24 525.79 938.36 530.87 945.12 C 532.78 947.85 530.47 950.79 529.38 953.32 C 527.18 958.56 523.76 963.14 521.18 968.18 C 516.88 976.22 513.15 984.57 508.24 992.27 C 504.29 1001.57 499.07 1010.24 494.13 1019.05 C 488.81 1027.98 485.23 1037.82 479.77 1046.69 C 468.86 1064.89 459.79 1084.10 449.76 1102.78 C 441.82 1098.85 433.91 1094.84 425.86 1091.13 C 434.62 1071.43 444.40 1052.17 452.20 1032.05 C 455.63 1022.84 460.94 1014.52 464.54 1005.40 C 468.50 996.43 471.74 987.11 476.66 978.60 C 478.37 975.45 479.23 971.94 480.71 968.70 C 484.42 960.44 488.78 952.46 491.78 943.90 C 493.35 939.61 495.77 935.71 497.62 931.54 M 498.89 951.11 C 496.39 958.10 493.80 965.06 491.39 972.08 C 490.57 974.01 492.58 975.48 494.15 976.09 C 496.78 977.20 499.30 979.24 502.32 978.72 C 506.73 971.99 510.98 965.16 515.28 958.37 C 516.19 957.31 515.58 956.05 515.20 954.96 C 510.70 953.04 506.51 950.45 501.96 948.65 C 500.38 948.14 499.24 949.81 498.89 951.11 Z" />
<path fill="#754d2a" stroke="#754d2a" stroke-width="0.09375" opacity="1.00" d=" M 792.67 1110.51 C 815.89 1102.94 841.09 1101.84 864.99 1106.66 C 889.73 1111.68 914.02 1124.40 928.25 1145.85 C 934.47 1154.80 936.01 1165.77 939.21 1175.95 C 941.80 1184.62 948.54 1191.26 955.81 1196.28 C 979.44 1212.18 1009.09 1214.44 1033.69 1228.31 C 1037.58 1230.92 1042.49 1233.17 1044.12 1237.92 C 1046.65 1244.03 1046.64 1250.77 1046.22 1257.28 C 909.00 1264.24 771.73 1270.59 634.50 1277.37 C 633.81 1275.24 633.18 1273.10 632.59 1270.97 C 638.39 1257.23 650.62 1247.53 663.38 1240.54 C 678.72 1232.22 695.50 1227.06 712.24 1222.37 C 714.60 1221.94 715.40 1219.40 716.69 1217.71 C 726.07 1203.07 730.80 1186.20 735.56 1169.66 C 739.03 1157.87 743.49 1146.01 751.52 1136.51 C 762.28 1124.00 777.16 1115.68 792.67 1110.51 M 803.97 1145.48 C 789.29 1150.00 774.98 1157.01 764.08 1168.03 C 755.68 1176.60 750.45 1188.52 751.57 1200.65 C 798.27 1188.50 846.89 1184.89 895.00 1186.88 C 904.85 1187.26 914.66 1188.50 924.51 1188.80 C 922.97 1179.66 919.41 1170.77 913.29 1163.72 C 903.09 1151.79 888.05 1145.13 872.97 1141.89 C 850.17 1137.19 826.20 1138.76 803.97 1145.48 Z" />
<path fill="#754d2a" stroke="#754d2a" stroke-width="0.09375" opacity="1.00" d=" M 1201.04 1193.11 C 1237.38 1176.56 1275.90 1164.71 1315.39 1158.61 C 1321.81 1171.41 1324.97 1185.86 1323.86 1200.18 C 1284.07 1216.14 1242.98 1228.89 1204.01 1246.90 C 1188.30 1254.03 1172.99 1262.14 1158.58 1271.64 C 1155.73 1273.89 1151.87 1271.58 1149.60 1269.52 C 1143.31 1262.36 1144.58 1250.86 1136.68 1244.81 C 1122.25 1253.63 1107.19 1261.50 1093.42 1271.35 C 1088.45 1274.97 1083.69 1278.94 1079.66 1283.59 C 1073.73 1290.97 1074.71 1301.55 1068.88 1308.95 C 1063.61 1315.44 1053.84 1314.23 1048.24 1320.36 C 1046.89 1309.30 1047.96 1298.10 1047.24 1287.00 C 1046.85 1283.84 1046.39 1280.70 1046.27 1277.54 C 1046.53 1277.35 1047.06 1276.96 1047.32 1276.77 C 1060.20 1269.46 1073.50 1262.78 1086.31 1255.29 C 1124.13 1233.81 1161.29 1210.94 1201.04 1193.11 Z" />
<path fill="#754d2a" stroke="#754d2a" stroke-width="0.09375" opacity="1.00" d=" M 1754.63 1322.73 C 1764.02 1317.04 1774.96 1313.50 1786.00 1313.62 C 1791.61 1313.54 1797.12 1315.97 1801.01 1319.98 C 1804.65 1324.63 1802.49 1330.81 1801.81 1336.08 C 1801.22 1338.70 1801.83 1342.24 1804.65 1343.32 C 1813.90 1347.11 1824.18 1346.98 1833.97 1346.08 C 1851.80 1344.23 1869.18 1339.18 1887.09 1338.08 C 1888.88 1337.74 1890.32 1339.12 1891.09 1340.61 C 1831.17 1362.80 1771.31 1385.14 1711.42 1407.39 C 1701.24 1411.03 1691.24 1415.22 1680.95 1418.50 C 1680.78 1416.58 1680.66 1414.68 1680.54 1412.78 C 1706.03 1395.94 1733.45 1381.72 1756.65 1361.62 C 1758.98 1359.97 1757.50 1356.62 1756.27 1354.73 C 1753.15 1349.73 1746.33 1349.48 1742.69 1345.13 C 1741.60 1342.91 1742.50 1340.37 1742.64 1338.06 C 1743.31 1331.11 1749.12 1326.24 1754.63 1322.73 Z" />
<path fill="#754d2a" stroke="#754d2a" stroke-width="0.09375" opacity="1.00" d=" M 1252.44 1437.01 C 1312.50 1457.66 1372.63 1478.08 1432.69 1498.73 C 1420.61 1521.74 1408.29 1544.62 1396.16 1567.61 C 1344.23 1549.99 1292.36 1532.18 1240.48 1514.38 C 1244.58 1488.61 1248.24 1462.77 1252.44 1437.01 Z" />
<path fill="#754d2a" stroke="#754d2a" stroke-width="0.09375" opacity="1.00" d=" M 495.88 1481.04 C 513.30 1473.46 530.34 1464.97 547.58 1456.98 C 547.45 1485.31 546.87 1513.64 546.70 1541.97 C 546.23 1567.51 546.29 1593.06 545.68 1618.61 C 536.45 1626.48 527.25 1634.38 518.07 1642.32 C 516.51 1633.16 515.16 1623.97 513.94 1614.77 C 519.30 1610.18 524.46 1605.38 529.81 1600.78 C 528.99 1563.16 527.08 1525.56 526.13 1487.94 C 516.22 1492.78 507.12 1499.14 497.55 1504.63 C 496.39 1497.66 495.62 1490.64 494.32 1483.70 C 494.79 1482.89 495.25 1482.10 495.72 1481.32 L 495.88 1481.04 Z" />
<path fill="#754d2a" stroke="#754d2a" stroke-width="0.09375" opacity="1.00" d=" M 0.00 1802.78 C 9.42 1799.02 20.73 1800.80 28.27 1807.68 C 35.25 1813.87 38.64 1823.89 36.65 1833.04 C 35.28 1840.40 30.53 1846.92 24.17 1850.81 C 51.32 1843.55 79.11 1838.65 107.07 1835.91 C 130.32 1833.88 153.80 1833.40 177.01 1836.12 C 194.21 1838.48 211.80 1842.10 226.80 1851.27 C 235.14 1856.47 242.94 1864.03 245.18 1873.93 C 190.40 1889.24 135.62 1904.56 80.87 1920.00 L 0.00 1920.00 L 0.00 1857.44 C 3.10 1856.58 6.18 1855.65 9.25 1854.73 C 6.12 1854.21 2.98 1853.66 0.00 1852.55 L 0.00 1802.78 Z" />
<path fill="#754d2a" stroke="#754d2a" stroke-width="0.09375" opacity="1.00" d=" M 1907.77 1812.89 C 1910.65 1808.25 1915.18 1805.04 1920.00 1802.67 L 1920.00 1852.61 C 1915.49 1850.58 1911.33 1847.62 1908.46 1843.56 C 1901.96 1834.78 1901.62 1821.93 1907.77 1812.89 Z" />
<path fill="#754d2a" stroke="#754d2a" stroke-width="0.09375" opacity="1.00" d=" M 727.06 1805.18 C 748.10 1817.70 768.96 1830.51 789.93 1843.16 C 823.32 1863.46 856.87 1883.50 890.16 1903.98 C 885.60 1909.32 881.19 1914.79 876.47 1920.00 L 767.78 1920.00 C 744.98 1905.99 722.04 1892.20 699.14 1878.37 C 708.23 1853.89 717.88 1829.62 727.06 1805.18 Z" />
<path fill="#754d2a" stroke="#754d2a" stroke-width="0.09375" opacity="1.00" d=" M 1810.02 1905.18 C 1844.35 1884.47 1881.70 1869.12 1920.00 1857.45 L 1920.00 1920.00 L 1788.16 1920.00 C 1795.11 1914.58 1802.57 1909.87 1810.02 1905.18 Z" />
<path fill="#754d2a" stroke="#754d2a" stroke-width="0.09375" opacity="1.00" d=" M 258.04 1894.76 C 277.82 1882.87 297.78 1871.29 317.45 1859.23 C 325.78 1875.49 333.61 1891.99 341.81 1908.32 C 330.13 1912.12 318.56 1916.26 306.86 1920.00 L 262.44 1920.00 C 261.77 1911.46 259.35 1903.20 258.04 1894.76 Z" />
<path fill="#754d2a" stroke="#754d2a" stroke-width="0.09375" opacity="1.00" d=" M 1068.72 1871.72 C 1079.82 1869.22 1093.03 1876.11 1095.47 1887.68 C 1097.90 1898.47 1093.98 1909.25 1093.16 1920.00 L 1075.01 1920.00 C 1080.93 1913.48 1082.44 1903.88 1080.78 1895.46 C 1080.07 1892.58 1079.23 1889.27 1076.57 1887.61 C 1073.55 1886.25 1069.95 1887.53 1068.31 1890.34 C 1062.55 1898.87 1061.21 1910.88 1066.38 1920.00 L 1048.56 1920.00 C 1050.62 1909.33 1050.61 1898.28 1053.86 1887.85 C 1056.37 1880.88 1061.45 1874.09 1068.72 1871.72 Z" />
<path fill="#754d2a" stroke="#754d2a" stroke-width="0.09375" opacity="1.00" d=" M 1339.58 1920.00 C 1362.86 1906.08 1385.96 1891.86 1409.26 1877.99 C 1414.81 1892.04 1420.52 1906.04 1426.33 1920.00 L 1339.58 1920.00 Z" />
</g>
<g id="#ffffffff">
<path fill="#ffffff" stroke="#ffffff" stroke-width="0.09375" opacity="1.00" d=" M 1066.27 0.00 L 1075.35 0.00 C 1072.66 2.12 1068.80 2.73 1066.27 0.00 Z" />
<path fill="#ffffff" stroke="#ffffff" stroke-width="0.09375" opacity="1.00" d=" M 687.87 53.79 C 689.40 52.02 690.59 48.22 693.56 49.55 C 697.69 52.13 702.02 54.49 705.79 57.59 C 706.88 57.69 707.98 57.80 709.09 57.90 C 709.15 60.07 711.51 60.33 713.10 60.93 C 714.19 62.58 715.78 65.62 718.12 63.95 C 718.28 64.24 718.59 64.82 718.75 65.11 C 723.69 68.02 728.55 71.13 733.43 74.15 C 733.21 76.42 731.81 78.37 730.92 80.42 C 730.19 78.33 729.83 76.13 729.06 74.07 C 727.95 72.71 726.58 71.61 725.33 70.40 C 724.35 70.36 723.38 70.38 722.42 70.48 C 720.77 72.92 718.28 75.31 718.42 78.48 C 720.36 78.61 722.32 78.61 724.28 78.48 C 724.62 78.15 725.29 77.49 725.63 77.15 C 725.08 80.66 722.25 83.22 720.52 86.19 C 720.63 83.47 720.03 79.70 716.75 79.26 C 715.20 81.82 713.51 84.31 712.37 87.08 C 712.40 89.44 715.26 90.14 716.80 91.42 C 719.85 92.25 722.98 92.20 725.98 91.17 C 724.87 92.64 723.97 94.30 722.55 95.49 C 720.06 96.35 718.23 93.84 716.25 92.80 C 711.95 90.26 707.92 87.24 703.40 85.12 C 703.51 84.80 703.73 84.16 703.84 83.83 C 705.03 83.80 706.22 83.77 707.42 83.74 C 710.77 78.18 714.86 72.97 717.35 66.95 L 717.30 64.83 L 715.73 66.30 C 715.01 65.57 714.28 64.84 713.56 64.13 C 712.71 65.56 712.02 67.14 710.60 68.08 C 710.24 65.99 709.87 63.90 709.42 61.83 C 707.84 60.66 706.32 59.41 704.86 58.11 C 701.11 63.11 698.20 68.64 695.18 74.09 C 694.09 75.56 694.66 77.48 694.66 79.14 C 690.76 77.55 687.47 74.88 683.94 72.66 C 685.62 72.60 687.34 72.75 689.01 72.35 C 691.06 69.94 692.51 67.10 694.23 64.45 C 696.02 61.28 698.45 58.27 698.86 54.53 C 697.26 53.85 695.76 52.79 694.02 52.60 C 691.98 53.11 689.96 53.70 687.87 53.79 Z" />
<path fill="#ffffff" stroke="#ffffff" stroke-width="0.09375" opacity="1.00" d=" M 745.96 82.66 C 746.60 82.52 747.89 82.24 748.53 82.10 C 748.42 91.77 744.16 101.14 745.77 110.87 C 743.45 108.85 740.67 107.53 738.18 105.76 C 737.75 104.28 739.30 103.80 740.22 103.07 C 740.48 100.98 740.62 98.88 740.66 96.78 C 738.72 95.64 736.83 94.44 734.95 93.23 C 733.41 94.41 731.88 95.60 730.33 96.76 C 730.14 98.61 730.85 100.28 731.76 101.84 C 729.05 100.22 726.16 98.83 723.82 96.66 C 725.71 96.41 727.88 96.74 729.45 95.40 C 734.96 91.16 740.40 86.83 745.96 82.66 M 737.24 93.29 C 738.62 93.79 740.01 94.29 741.40 94.80 C 741.93 92.63 742.36 90.44 742.71 88.24 C 740.03 88.35 736.93 90.29 737.24 93.29 Z" />
<path fill="#ffffff" stroke="#ffffff" stroke-width="0.09375" opacity="1.00" d=" M 1465.73 107.70 C 1468.11 106.36 1470.29 104.04 1473.26 104.40 C 1473.95 105.79 1474.59 107.19 1475.23 108.62 C 1473.14 108.39 1471.07 107.57 1468.99 107.85 C 1466.94 108.60 1465.11 109.80 1463.24 110.86 C 1464.37 113.42 1465.65 115.91 1466.92 118.40 C 1467.76 118.46 1468.61 118.53 1469.48 118.59 C 1470.10 117.74 1470.73 116.89 1471.38 116.05 C 1471.43 115.20 1471.52 113.51 1471.57 112.66 C 1473.54 115.19 1475.12 117.99 1476.81 120.72 C 1474.44 119.97 1471.99 119.49 1469.52 119.51 C 1468.82 122.95 1471.68 125.47 1472.95 128.38 C 1474.39 128.46 1475.84 128.52 1477.32 128.55 C 1480.69 126.14 1482.30 122.50 1483.87 118.85 C 1485.13 120.73 1485.81 122.87 1485.64 125.15 C 1479.72 128.24 1473.81 131.46 1468.36 135.36 C 1468.07 133.69 1468.76 131.78 1467.80 130.26 C 1465.08 124.99 1461.49 120.24 1458.95 114.89 C 1458.44 114.76 1457.42 114.50 1456.91 114.37 C 1457.06 113.86 1457.37 112.85 1457.53 112.35 C 1460.24 110.78 1463.13 109.50 1465.73 107.70 Z" />
<path fill="#ffffff" stroke="#ffffff" stroke-width="0.09375" opacity="1.00" d=" M 1443.27 121.39 C 1446.01 119.94 1448.25 117.23 1451.61 117.29 C 1452.62 118.72 1453.56 120.23 1454.15 121.90 C 1452.04 121.57 1450.01 120.49 1447.88 120.70 C 1445.91 121.42 1443.92 122.24 1442.32 123.62 C 1442.20 126.81 1444.55 129.29 1446.22 131.78 C 1446.73 131.71 1447.76 131.58 1448.28 131.51 C 1449.62 129.70 1449.79 127.50 1449.74 125.32 C 1450.07 125.47 1450.72 125.78 1451.05 125.93 C 1452.18 128.48 1453.37 131.06 1455.24 133.18 C 1455.23 133.46 1455.20 134.04 1455.19 134.33 C 1453.31 132.66 1450.85 132.29 1448.45 132.33 C 1447.41 136.00 1450.37 138.71 1451.95 141.67 C 1452.75 141.66 1454.35 141.65 1455.16 141.64 C 1458.37 139.48 1461.45 136.67 1461.74 132.52 C 1462.11 132.47 1462.86 132.35 1463.24 132.29 C 1463.63 133.98 1464.06 135.65 1464.58 137.32 C 1462.02 139.60 1458.97 141.21 1455.93 142.71 C 1453.12 144.49 1450.14 145.98 1447.42 147.85 C 1446.94 142.77 1443.55 138.83 1441.23 134.51 C 1439.23 131.33 1437.53 126.74 1432.90 127.34 C 1436.38 125.40 1439.71 123.20 1443.27 121.39 Z" />
<path fill="#ffffff" stroke="#ffffff" stroke-width="0.09375" opacity="1.00" d=" M 1428.26 130.19 C 1429.24 129.45 1430.50 129.41 1431.68 129.15 C 1432.90 130.61 1434.10 132.11 1435.06 133.77 C 1432.66 133.36 1430.31 132.63 1427.89 132.45 C 1426.05 133.95 1422.16 134.11 1422.23 137.07 C 1422.93 140.04 1424.97 142.51 1426.94 144.77 C 1428.84 142.62 1430.08 140.07 1429.46 137.16 C 1430.82 138.93 1432.09 140.77 1433.34 142.63 C 1433.51 143.65 1433.70 144.66 1433.92 145.68 C 1431.73 145.15 1429.48 145.08 1427.27 145.34 C 1428.47 148.83 1430.30 152.59 1433.73 154.37 C 1433.70 154.81 1433.65 155.70 1433.62 156.14 C 1431.16 157.59 1428.72 159.07 1426.32 160.59 C 1427.94 155.43 1423.65 151.70 1421.62 147.48 C 1419.48 144.21 1417.62 139.21 1412.95 139.44 C 1418.00 136.28 1423.30 133.52 1428.26 130.19 Z" />
<path fill="#ffffff" stroke="#ffffff" stroke-width="0.09375" opacity="1.00" d=" M 1405.14 144.38 C 1407.43 143.29 1409.29 140.98 1412.06 141.37 C 1412.94 142.91 1413.95 144.38 1414.99 145.84 C 1412.92 145.52 1410.89 145.04 1408.85 144.70 C 1406.50 145.23 1404.38 146.42 1402.27 147.51 C 1401.73 150.58 1404.03 152.77 1404.88 155.49 C 1407.66 156.78 1411.05 153.26 1408.81 150.81 C 1408.98 150.46 1409.32 149.77 1409.48 149.42 C 1411.36 152.06 1413.51 154.72 1413.98 158.05 C 1413.06 157.51 1412.16 156.96 1411.28 156.40 C 1409.81 156.46 1408.34 156.69 1407.13 157.55 C 1408.05 160.77 1410.26 163.36 1411.94 166.20 C 1412.83 166.32 1414.61 166.55 1415.50 166.66 C 1412.92 168.79 1410.05 170.95 1406.54 170.85 C 1406.60 169.27 1406.37 167.70 1405.45 166.39 C 1402.75 161.82 1400.04 157.27 1397.10 152.86 C 1395.95 152.32 1394.84 151.74 1393.78 151.12 C 1397.51 148.79 1401.27 146.49 1405.14 144.38 Z" />
<path fill="#ffffff" stroke="#ffffff" stroke-width="0.09375" opacity="1.00" d=" M 1380.39 158.73 C 1385.23 156.18 1392.10 156.90 1395.55 161.46 C 1400.65 167.10 1399.18 177.39 1392.47 181.18 C 1389.29 183.98 1384.79 184.18 1380.89 183.10 C 1374.18 180.85 1370.59 172.26 1373.64 165.90 C 1374.48 162.49 1377.61 160.49 1380.39 158.73 M 1379.91 160.43 C 1379.15 161.26 1378.40 162.09 1377.66 162.92 C 1376.35 169.00 1379.77 174.86 1384.04 178.91 C 1386.25 181.02 1389.44 180.65 1392.24 180.39 C 1393.01 178.66 1393.99 176.98 1394.29 175.08 C 1393.72 169.01 1389.80 163.95 1385.13 160.32 C 1383.37 160.34 1381.63 160.37 1379.91 160.43 Z" />
<path fill="#ffffff" stroke="#ffffff" stroke-width="0.09375" opacity="1.00" d=" M 1364.34 168.91 C 1367.25 170.08 1368.29 173.40 1369.97 175.81 C 1367.79 175.61 1366.02 174.29 1364.05 173.53 C 1362.25 173.29 1360.43 173.42 1358.66 173.43 C 1356.70 175.10 1354.96 177.29 1355.55 180.04 C 1356.00 184.77 1359.16 189.01 1362.93 191.75 C 1365.34 193.28 1368.39 192.44 1371.10 192.33 C 1373.46 189.76 1374.31 186.43 1374.77 183.05 C 1376.91 185.58 1375.10 189.20 1373.73 191.67 C 1370.65 196.01 1365.04 197.54 1359.97 196.51 C 1353.01 194.29 1348.53 185.65 1351.66 178.84 C 1353.04 173.88 1358.48 171.49 1363.25 171.30 C 1363.52 170.70 1364.06 169.50 1364.34 168.91 Z" />
<path fill="#ffffff" stroke="#ffffff" stroke-width="0.09375" opacity="1.00" d=" M 1734.99 1123.54 C 1740.38 1123.64 1745.65 1122.22 1751.05 1122.42 C 1763.08 1122.07 1775.06 1123.22 1786.98 1124.80 C 1795.81 1126.61 1804.84 1128.00 1813.25 1131.41 C 1822.74 1134.81 1832.18 1139.39 1839.01 1147.02 C 1842.50 1150.76 1844.56 1155.93 1844.22 1161.06 C 1843.42 1168.21 1838.08 1173.68 1832.67 1177.90 C 1825.51 1183.03 1817.29 1186.42 1808.99 1189.21 C 1791.52 1194.46 1773.23 1196.78 1755.00 1196.52 C 1737.44 1196.61 1719.79 1194.42 1703.00 1189.17 C 1692.71 1185.65 1682.04 1181.65 1674.37 1173.61 C 1670.87 1170.26 1668.06 1165.86 1667.63 1160.96 C 1667.03 1154.99 1670.23 1149.32 1674.47 1145.34 C 1680.29 1139.31 1687.98 1135.57 1695.64 1132.41 C 1708.21 1127.49 1721.61 1125.01 1734.99 1123.54 M 1742.95 1126.28 C 1732.80 1126.57 1722.81 1128.54 1712.94 1130.76 C 1703.08 1133.36 1693.18 1136.78 1684.93 1142.94 C 1680.05 1146.27 1676.08 1151.19 1674.67 1156.99 C 1673.46 1163.82 1677.70 1170.10 1682.62 1174.38 C 1690.55 1180.94 1700.36 1184.63 1710.10 1187.62 C 1719.28 1189.80 1728.55 1191.76 1737.99 1192.46 C 1746.34 1192.50 1754.73 1194.40 1763.05 1192.85 C 1779.53 1192.23 1796.07 1189.44 1811.39 1183.15 C 1817.95 1180.23 1824.28 1176.51 1829.30 1171.29 C 1832.54 1167.35 1835.14 1162.11 1833.93 1156.89 C 1832.97 1151.25 1828.77 1146.92 1824.51 1143.45 C 1815.74 1136.74 1805.07 1133.06 1794.47 1130.42 C 1784.45 1128.33 1774.34 1126.35 1764.08 1126.27 C 1757.06 1125.50 1749.95 1125.41 1742.95 1126.28 Z" />
<path fill="#ffffff" stroke="#ffffff" stroke-width="0.09375" opacity="1.00" d=" M 1733.50 1130.72 C 1752.00 1128.86 1770.96 1128.88 1789.10 1133.43 C 1798.55 1135.28 1807.74 1138.86 1815.78 1144.20 C 1820.29 1147.72 1825.23 1152.05 1825.75 1158.16 C 1826.32 1162.62 1824.28 1167.03 1821.12 1170.10 C 1814.89 1176.96 1806.05 1180.59 1797.45 1183.48 C 1788.50 1186.15 1779.30 1188.21 1769.96 1188.64 C 1762.71 1190.06 1755.31 1189.36 1747.99 1189.52 C 1731.55 1188.61 1714.88 1186.04 1699.84 1178.99 C 1694.49 1175.96 1688.85 1172.79 1685.37 1167.55 C 1682.61 1163.99 1683.08 1159.17 1683.62 1154.99 C 1686.30 1148.28 1692.58 1144.11 1698.63 1140.72 C 1709.48 1135.17 1721.53 1132.54 1733.50 1130.72 M 1740.02 1132.80 C 1734.02 1133.95 1727.84 1134.13 1721.97 1135.96 C 1711.65 1138.66 1700.66 1142.21 1693.40 1150.47 C 1690.58 1153.51 1689.14 1157.94 1690.04 1162.03 C 1690.95 1167.45 1695.64 1171.03 1699.72 1174.21 C 1709.02 1179.99 1719.75 1183.18 1730.53 1184.79 C 1741.23 1187.06 1752.23 1186.61 1763.09 1186.51 C 1775.83 1185.81 1788.65 1183.68 1800.48 1178.72 C 1807.47 1175.53 1814.83 1171.43 1818.20 1164.15 C 1819.09 1159.98 1819.11 1155.11 1816.32 1151.62 C 1812.23 1146.10 1805.92 1142.79 1799.79 1140.05 C 1780.85 1132.62 1760.13 1131.38 1740.02 1132.80 Z" />
<path fill="#ffffff" stroke="#ffffff" stroke-width="0.09375" opacity="1.00" d=" M 1743.49 1135.65 C 1753.99 1135.48 1764.63 1134.87 1775.01 1136.96 C 1786.21 1138.84 1797.88 1141.73 1806.75 1149.26 C 1810.65 1152.50 1813.72 1157.85 1811.77 1163.00 C 1809.30 1169.39 1802.96 1173.08 1797.08 1175.89 C 1779.48 1183.50 1759.89 1184.55 1740.99 1183.34 C 1733.15 1182.09 1725.19 1181.13 1717.75 1178.23 C 1711.26 1176.00 1704.73 1173.07 1699.99 1167.98 C 1697.12 1164.65 1695.18 1159.70 1697.30 1155.51 C 1699.91 1148.98 1706.61 1145.69 1712.56 1142.80 C 1722.30 1138.49 1732.94 1136.66 1743.49 1135.65 M 1720.97 1143.01 C 1715.05 1145.49 1708.68 1148.41 1705.18 1154.07 C 1702.63 1157.65 1703.10 1162.92 1705.93 1166.24 C 1710.30 1172.03 1717.41 1174.58 1723.90 1177.23 C 1730.52 1178.83 1737.18 1180.27 1743.92 1181.32 C 1757.66 1182.17 1771.67 1181.88 1784.97 1177.97 C 1792.53 1175.73 1800.35 1172.73 1805.63 1166.59 C 1808.87 1163.10 1809.19 1157.43 1806.41 1153.58 C 1803.08 1149.12 1798.26 1145.93 1793.14 1143.88 C 1781.72 1139.17 1769.28 1137.43 1756.99 1137.48 C 1744.79 1137.34 1732.45 1138.75 1720.97 1143.01 Z" />
<path fill="#ffffff" stroke="#ffffff" stroke-width="0.09375" opacity="1.00" d=" M 1217.58 1610.92 C 1216.13 1602.84 1223.70 1594.25 1232.03 1595.73 C 1236.20 1596.06 1238.59 1600.61 1242.87 1600.46 C 1242.25 1602.93 1241.71 1605.43 1241.23 1607.96 C 1239.02 1606.69 1239.43 1603.69 1238.22 1601.71 C 1237.48 1599.37 1234.96 1598.65 1233.08 1597.54 C 1226.32 1598.84 1223.09 1606.77 1223.92 1612.98 C 1224.00 1616.03 1226.58 1617.84 1228.69 1619.64 C 1231.97 1620.11 1234.89 1618.63 1237.66 1617.06 C 1237.60 1617.59 1237.48 1618.64 1237.43 1619.17 C 1235.54 1619.80 1233.79 1620.72 1231.95 1621.41 C 1225.47 1622.57 1217.97 1617.77 1217.58 1610.92 Z" />
<path fill="#ffffff" stroke="#ffffff" stroke-width="0.09375" opacity="1.00" d=" M 1248.76 1605.71 C 1251.88 1603.83 1255.62 1604.17 1259.09 1604.65 C 1263.92 1606.86 1268.69 1611.14 1268.29 1616.95 C 1268.22 1625.36 1259.26 1631.56 1251.24 1629.59 C 1252.10 1627.07 1255.07 1628.22 1256.53 1626.57 C 1260.43 1623.24 1262.03 1617.96 1262.41 1613.02 C 1262.61 1610.39 1261.19 1608.07 1259.39 1606.33 C 1257.82 1606.31 1256.26 1606.30 1254.72 1606.30 C 1249.47 1610.18 1246.61 1617.06 1247.63 1623.53 C 1247.75 1625.36 1249.43 1626.33 1250.73 1627.40 L 1250.16 1629.02 C 1246.24 1627.88 1243.39 1624.75 1241.90 1621.07 C 1240.11 1615.15 1243.01 1608.20 1248.76 1605.71 Z" />
<path fill="#ffffff" stroke="#ffffff" stroke-width="0.09375" opacity="1.00" d=" M 1275.30 1611.14 C 1281.54 1612.44 1287.13 1615.77 1293.43 1616.88 C 1293.54 1618.80 1293.54 1620.73 1293.46 1622.68 C 1291.55 1622.94 1291.18 1620.84 1290.26 1619.71 C 1289.20 1618.04 1287.49 1616.96 1286.04 1615.71 C 1284.56 1615.60 1283.10 1615.51 1281.65 1615.44 C 1280.34 1618.28 1279.06 1621.28 1279.31 1624.50 C 1280.24 1624.46 1282.11 1624.36 1283.04 1624.31 C 1283.90 1623.43 1284.81 1622.60 1285.75 1621.81 C 1285.81 1625.17 1284.40 1628.28 1282.80 1631.17 C 1282.30 1629.68 1281.84 1628.24 1281.39 1626.79 C 1280.73 1626.36 1279.40 1625.49 1278.73 1625.06 C 1276.37 1628.79 1274.58 1633.20 1275.84 1637.67 C 1273.34 1636.50 1270.73 1635.60 1268.12 1634.78 C 1267.28 1634.42 1266.46 1634.08 1265.65 1633.77 C 1270.07 1634.06 1270.64 1629.18 1271.93 1626.11 C 1273.29 1621.16 1276.57 1616.48 1275.30 1611.14 Z" />
<path fill="#ffffff" stroke="#ffffff" stroke-width="0.09375" opacity="1.00" d=" M 1294.87 1618.45 C 1298.90 1618.43 1302.51 1620.41 1306.23 1621.72 C 1309.39 1622.60 1312.55 1623.53 1315.67 1624.59 C 1315.70 1627.05 1315.50 1629.52 1315.07 1631.97 C 1313.85 1629.30 1312.57 1626.50 1310.14 1624.73 C 1308.40 1623.78 1306.48 1623.20 1304.75 1622.28 C 1302.66 1625.02 1301.54 1628.30 1301.11 1631.71 C 1303.24 1631.68 1306.12 1632.45 1307.05 1629.86 C 1307.42 1629.75 1308.17 1629.52 1308.55 1629.41 C 1307.85 1631.79 1307.32 1634.26 1306.16 1636.49 C 1304.13 1637.93 1303.85 1634.77 1303.14 1633.62 C 1302.00 1633.54 1300.88 1633.48 1299.78 1633.46 C 1299.66 1634.09 1299.41 1635.34 1299.29 1635.97 C 1298.22 1638.14 1297.25 1640.52 1297.67 1643.01 C 1298.39 1644.20 1299.88 1644.64 1301.00 1645.45 C 1296.77 1645.54 1293.16 1642.79 1289.07 1642.08 C 1290.13 1640.20 1292.58 1639.43 1292.98 1637.02 C 1294.63 1631.38 1298.04 1625.93 1297.52 1619.91 C 1296.61 1619.42 1295.73 1618.93 1294.87 1618.45 Z" />
<path fill="#ffffff" stroke="#ffffff" stroke-width="0.09375" opacity="1.00" d=" M 1317.83 1626.42 C 1321.14 1625.82 1323.91 1628.00 1327.08 1628.50 C 1328.15 1628.71 1329.47 1628.83 1329.80 1630.18 C 1332.56 1630.29 1335.11 1631.36 1337.60 1632.50 C 1337.44 1634.54 1337.31 1636.60 1337.14 1638.67 C 1334.18 1637.41 1334.60 1633.42 1331.79 1632.06 C 1330.14 1631.24 1328.37 1630.71 1326.66 1630.13 C 1324.98 1633.05 1323.44 1636.15 1323.36 1639.61 C 1326.14 1640.07 1328.74 1639.29 1330.61 1637.18 C 1330.33 1640.82 1328.53 1644.05 1326.93 1647.27 C 1326.71 1645.75 1326.51 1644.21 1326.37 1642.73 C 1325.07 1641.66 1323.52 1641.19 1321.89 1641.48 C 1321.46 1644.09 1320.44 1646.56 1319.47 1649.03 C 1319.77 1649.63 1320.38 1650.84 1320.68 1651.45 C 1324.99 1652.91 1330.25 1653.54 1333.73 1650.00 C 1333.42 1652.49 1332.50 1656.73 1329.11 1655.73 C 1323.27 1654.25 1317.87 1651.35 1312.00 1649.99 C 1312.10 1648.65 1313.07 1647.84 1314.06 1647.11 C 1316.61 1641.61 1318.35 1635.77 1320.17 1630.00 C 1321.15 1628.15 1318.87 1627.37 1317.83 1626.42 Z" />
<path fill="#ffffff" stroke="#ffffff" stroke-width="0.09375" opacity="1.00" d=" M 1341.20 1634.45 C 1345.05 1633.84 1348.29 1636.15 1351.79 1637.28 C 1354.90 1638.34 1357.99 1639.52 1361.28 1639.96 C 1361.29 1642.05 1361.27 1644.16 1361.22 1646.28 C 1360.43 1646.29 1359.66 1646.32 1358.91 1646.37 C 1358.84 1641.78 1354.76 1639.18 1350.72 1638.33 C 1348.37 1640.86 1347.47 1644.30 1347.24 1647.67 C 1349.64 1647.98 1351.94 1647.45 1353.89 1645.97 C 1353.78 1649.26 1352.44 1652.36 1350.78 1655.16 C 1350.79 1652.31 1349.57 1649.18 1346.33 1649.09 C 1344.84 1652.48 1341.24 1657.91 1345.73 1660.43 C 1349.83 1660.68 1354.04 1660.84 1357.84 1658.97 C 1356.92 1660.52 1356.06 1662.10 1355.29 1663.74 C 1351.68 1664.11 1348.46 1662.32 1345.14 1661.30 C 1341.54 1659.87 1337.79 1658.81 1334.34 1657.07 C 1338.73 1656.69 1339.08 1652.00 1340.37 1648.83 C 1341.28 1644.55 1344.41 1640.72 1343.66 1636.18 C 1342.85 1635.52 1342.02 1635.00 1341.20 1634.45 Z" />
<path fill="#ffffff" stroke="#ffffff" stroke-width="0.09375" opacity="1.00" d=" M 0.00 1852.55 C 2.98 1853.66 6.12 1854.21 9.25 1854.73 C 6.18 1855.65 3.10 1856.58 0.00 1857.44 L 0.00 1852.55 Z" />
</g>
<g id="#0eb7b0ff">
<path fill="#0eb7b0" stroke="#0eb7b0" stroke-width="0.09375" opacity="1.00" d=" M 123.34 0.00 L 263.16 0.00 C 263.52 4.74 264.50 9.40 265.56 14.03 C 279.05 85.03 292.79 155.99 306.37 226.97 C 307.22 231.25 308.14 235.51 308.67 239.84 C 205.73 268.35 102.93 297.42 0.00 325.95 L 0.00 34.60 C 41.10 23.02 82.25 11.60 123.34 0.00 Z" />
<path fill="#0eb7b0" stroke="#0eb7b0" stroke-width="0.09375" opacity="1.00" d=" M 1739.82 84.98 C 1799.90 68.24 1859.96 51.41 1920.00 34.49 L 1920.00 326.10 C 1894.67 332.75 1869.61 340.43 1844.24 346.94 C 1815.95 276.11 1787.51 205.34 1759.31 134.47 C 1759.00 134.36 1758.38 134.13 1758.06 134.02 C 1757.75 129.41 1755.47 125.34 1753.89 121.10 C 1750.53 112.49 1746.94 103.96 1743.59 95.34 C 1742.18 91.94 1740.71 88.56 1739.82 84.98 Z" />
<path fill="#0eb7b0" stroke="#0eb7b0" stroke-width="0.09375" opacity="1.00" d=" M 1270.56 362.00 C 1344.41 396.09 1418.06 430.64 1491.87 464.81 C 1488.03 470.95 1482.88 476.15 1478.85 482.17 C 1474.08 488.00 1469.40 493.89 1464.94 499.95 C 1441.97 529.21 1419.08 558.54 1396.34 587.99 C 1391.18 594.13 1386.52 600.66 1381.42 606.84 C 1381.34 607.58 1381.18 609.05 1381.10 609.79 C 1380.59 609.80 1379.57 609.82 1379.06 609.83 C 1371.83 619.61 1364.09 629.01 1356.76 638.72 C 1353.40 642.70 1350.55 647.13 1346.98 650.91 C 1341.04 649.45 1335.70 646.16 1330.00 643.98 C 1289.48 626.40 1249.04 608.66 1208.50 591.12 C 1229.21 514.75 1249.83 438.36 1270.56 362.00 Z" />
<path fill="#0eb7b0" stroke="#0eb7b0" stroke-width="0.09375" opacity="1.00" d=" M 80.03 632.14 C 189.82 688.93 299.52 745.92 409.28 802.77 C 421.73 809.46 434.54 815.51 446.80 822.53 C 425.22 848.31 409.36 878.15 393.69 907.73 C 387.55 919.48 380.52 930.74 374.71 942.65 C 362.80 966.88 351.98 991.72 337.79 1014.74 C 331.51 1024.40 324.81 1034.78 313.92 1039.70 C 297.41 1047.24 278.55 1046.35 260.97 1044.05 C 231.60 1039.73 203.16 1030.23 176.24 1017.87 C 142.09 1002.34 108.88 984.71 77.02 964.88 C 49.56 947.52 22.62 928.73 0.00 905.24 L 0.00 795.49 C 12.91 771.13 25.44 746.58 37.59 721.84 C 44.85 707.23 51.14 692.18 57.67 677.24 C 63.90 665.98 68.54 653.90 75.05 642.80 C 76.25 640.78 75.80 638.34 75.67 636.14 C 76.03 636.61 76.76 637.56 77.13 638.03 C 78.09 636.06 79.06 634.10 80.03 632.14 Z" />
<path fill="#0eb7b0" stroke="#0eb7b0" stroke-width="0.09375" opacity="1.00" d=" M 741.21 731.65 C 751.22 723.82 763.23 718.25 775.89 716.59 C 783.75 715.62 792.19 717.41 798.10 722.94 C 807.16 731.23 810.87 743.41 814.17 754.85 C 817.78 767.86 820.22 781.23 825.05 793.88 C 827.85 800.80 831.33 807.90 837.55 812.37 C 839.65 813.66 841.89 811.99 843.58 810.78 C 854.87 802.96 861.93 790.89 870.33 780.35 C 877.95 770.41 887.93 761.37 900.43 758.42 C 903.74 750.88 902.59 742.30 904.18 734.34 C 917.80 734.46 931.42 734.76 945.05 734.80 C 955.35 735.61 965.71 735.21 976.04 735.48 C 1004.02 735.87 1031.98 736.57 1059.97 736.71 C 1062.66 736.70 1065.35 736.77 1068.05 737.01 C 1072.38 736.35 1076.70 737.44 1081.05 737.30 C 1097.11 737.36 1113.17 737.88 1129.23 737.74 C 1133.87 747.11 1135.79 757.67 1141.42 766.57 C 1144.28 771.21 1149.45 774.75 1155.06 774.55 C 1161.20 774.67 1165.93 770.11 1170.24 766.33 C 1177.18 759.72 1184.42 753.08 1193.40 749.36 C 1211.07 741.12 1231.04 741.52 1250.09 741.91 C 1264.79 746.99 1276.00 759.16 1283.45 772.47 C 1293.02 789.67 1297.23 809.41 1298.29 828.93 C 1299.33 854.06 1295.25 879.96 1283.34 902.33 C 1276.41 915.70 1265.69 926.64 1254.29 936.28 C 1224.18 961.03 1187.82 975.99 1154.35 995.37 C 1146.14 1000.30 1137.82 1005.28 1130.75 1011.78 C 1127.53 1018.72 1128.61 1027.31 1123.36 1033.38 C 1101.63 1038.96 1079.30 1041.85 1056.97 1043.51 C 1031.95 1045.11 1006.81 1045.17 981.81 1043.17 C 952.44 1040.49 922.59 1035.87 895.69 1023.17 C 891.15 1021.10 890.17 1015.63 889.64 1011.20 C 889.30 1006.68 888.77 1002.14 887.30 997.83 C 870.06 987.81 856.86 972.21 846.32 955.55 C 827.38 950.62 808.21 943.88 793.25 930.79 C 777.44 917.33 768.72 897.31 765.41 877.15 C 763.65 868.21 763.37 859.09 762.80 850.03 C 763.21 832.68 765.03 815.38 764.77 798.00 C 764.86 786.16 763.45 774.10 758.99 763.06 C 754.11 751.99 744.17 743.64 741.21 731.65 M 1202.77 788.86 C 1197.07 796.41 1194.80 805.87 1192.82 814.95 C 1187.80 842.79 1192.34 871.04 1193.76 898.98 C 1194.85 910.81 1194.40 922.70 1194.28 934.56 C 1214.66 930.65 1234.02 920.52 1247.73 904.79 C 1260.25 890.66 1268.20 872.75 1270.97 854.13 C 1273.84 833.70 1271.64 812.09 1262.50 793.43 C 1258.28 784.78 1250.41 778.08 1241.03 775.76 C 1227.18 771.38 1211.24 777.25 1202.77 788.86 Z" />
<path fill="#0eb7b0" stroke="#0eb7b0" stroke-width="0.09375" opacity="1.00" d=" M 1896.39 841.36 C 1903.78 825.77 1912.12 810.66 1920.00 795.32 L 1920.00 905.27 C 1910.94 895.99 1902.84 885.54 1897.56 873.64 C 1893.17 863.57 1891.61 851.58 1896.39 841.36 Z" />
<path fill="#0eb7b0" stroke="#0eb7b0" stroke-width="0.09375" opacity="1.00" d=" M 766.00 1283.71 C 859.54 1279.39 953.05 1274.47 1046.59 1270.31 C 1046.81 1272.40 1045.83 1275.00 1047.32 1276.77 C 1047.06 1276.96 1046.53 1277.35 1046.27 1277.54 C 1046.39 1280.70 1046.85 1283.84 1047.24 1287.00 C 1047.96 1298.10 1046.89 1309.30 1048.24 1320.36 C 1046.88 1346.21 1047.70 1372.11 1048.60 1397.96 C 1049.68 1423.34 1050.90 1448.72 1052.32 1474.09 C 1052.52 1485.40 1054.07 1496.69 1053.13 1508.00 C 1051.70 1518.22 1045.28 1526.95 1037.62 1533.52 C 1026.37 1542.91 1012.89 1549.16 999.24 1554.21 C 976.88 1562.25 953.55 1567.16 930.16 1571.11 C 880.14 1578.83 829.42 1581.72 778.83 1580.28 C 753.48 1578.73 728.02 1575.23 703.86 1567.13 C 688.54 1561.74 672.86 1554.54 662.69 1541.38 C 655.74 1532.25 654.39 1520.51 652.69 1509.53 C 649.45 1481.79 649.96 1453.82 649.28 1425.95 C 648.49 1414.67 647.66 1403.40 646.68 1392.14 C 644.87 1357.97 642.74 1323.54 633.99 1290.30 C 677.96 1287.77 722.01 1286.06 766.00 1283.71 Z" />
<path fill="#0eb7b0" stroke="#0eb7b0" stroke-width="0.09375" opacity="1.00" d=" M 84.54 1307.47 C 87.56 1306.20 90.88 1306.62 94.01 1307.08 C 105.54 1308.47 116.34 1313.63 125.60 1320.49 C 136.75 1328.95 145.95 1339.77 153.34 1351.61 C 164.91 1370.18 172.50 1391.21 175.54 1412.88 C 177.95 1431.34 177.10 1450.63 169.95 1468.02 C 157.19 1500.27 133.53 1526.32 111.26 1552.28 C 98.47 1566.96 85.40 1581.60 75.30 1598.32 C 71.74 1603.67 75.07 1610.08 75.45 1615.85 C 75.56 1619.21 76.37 1623.82 72.80 1625.77 C 50.11 1641.68 25.38 1654.46 0.00 1665.47 L 0.00 1372.71 C 4.01 1372.51 8.43 1373.27 11.97 1370.88 C 17.81 1367.10 20.21 1360.24 23.30 1354.35 C 27.01 1346.52 31.44 1338.85 37.94 1332.97 C 50.73 1320.21 68.04 1313.88 84.54 1307.47 M 78.89 1344.80 C 69.59 1349.10 62.60 1357.77 59.76 1367.55 C 56.93 1377.55 58.52 1388.14 60.46 1398.15 C 69.12 1436.34 92.93 1468.74 104.24 1505.99 C 105.40 1505.67 106.58 1505.36 107.54 1504.63 C 121.68 1495.31 133.40 1482.22 140.60 1466.86 C 143.28 1460.60 146.31 1454.23 146.95 1447.39 L 148.42 1447.69 C 146.70 1446.64 148.20 1444.54 148.15 1443.05 C 153.31 1414.28 144.35 1384.12 126.97 1360.99 C 121.09 1353.55 114.17 1346.32 105.04 1343.05 C 96.52 1340.45 86.96 1340.93 78.89 1344.80 Z" />
<path fill="#0eb7b0" stroke="#0eb7b0" stroke-width="0.09375" opacity="1.00" d=" M 1852.11 1362.09 C 1865.72 1357.23 1879.11 1351.58 1892.89 1347.25 C 1901.99 1355.51 1908.23 1367.43 1920.00 1372.42 L 1920.00 1665.59 C 1889.67 1678.10 1858.43 1688.96 1826.03 1694.63 C 1810.20 1697.29 1794.04 1699.15 1778.00 1697.56 C 1775.76 1697.51 1774.02 1695.92 1772.58 1694.41 C 1767.87 1689.14 1766.30 1681.73 1761.06 1676.85 C 1745.68 1674.76 1731.40 1667.86 1718.38 1659.66 C 1714.53 1657.53 1711.27 1654.29 1707.17 1652.70 C 1692.57 1654.47 1677.66 1655.09 1663.12 1652.50 C 1647.65 1649.71 1632.88 1642.48 1621.71 1631.34 C 1611.77 1621.84 1604.32 1610.09 1598.05 1597.94 C 1588.32 1578.64 1583.58 1557.40 1575.73 1537.36 C 1571.08 1525.56 1565.25 1513.90 1556.33 1504.72 C 1548.54 1497.29 1538.20 1493.07 1530.90 1485.08 C 1530.06 1483.99 1528.51 1482.82 1529.53 1481.37 C 1533.44 1474.35 1538.97 1468.32 1544.99 1463.04 C 1551.03 1457.95 1558.01 1453.43 1565.96 1452.19 C 1572.92 1451.00 1580.05 1453.34 1585.81 1457.23 C 1593.64 1462.60 1599.69 1470.08 1605.34 1477.62 C 1614.45 1489.51 1622.03 1502.69 1632.88 1513.16 C 1637.57 1517.80 1643.26 1521.81 1649.90 1522.92 C 1659.35 1511.64 1662.21 1496.84 1666.10 1483.07 C 1669.66 1470.27 1675.52 1457.19 1686.78 1449.38 C 1687.68 1440.94 1681.97 1433.53 1682.29 1425.25 C 1738.88 1404.18 1795.50 1383.12 1852.11 1362.09 Z" />
<path fill="#0eb7b0" stroke="#0eb7b0" stroke-width="0.09375" opacity="1.00" d=" M 194.88 1899.81 C 215.22 1894.33 235.37 1888.11 255.80 1883.02 C 256.43 1886.95 257.23 1890.85 258.04 1894.76 C 259.35 1903.20 261.77 1911.46 262.44 1920.00 L 123.40 1920.00 C 147.15 1913.00 171.07 1906.60 194.88 1899.81 Z" />
</g>
<g id="#d9e021ff">
<path fill="#d9e021" stroke="#d9e021" stroke-width="0.09375" opacity="1.00" d=" M 657.53 0.00 L 744.49 0.00 C 749.57 3.95 755.35 6.86 760.77 10.30 C 787.77 26.70 814.79 43.06 841.82 59.41 C 842.81 59.98 844.19 60.90 842.94 62.06 C 802.68 128.73 762.27 195.32 721.95 261.96 C 720.56 264.23 719.35 266.63 717.60 268.64 C 716.39 268.82 715.34 268.14 714.36 267.59 C 663.95 236.98 613.46 206.50 563.04 175.91 C 560.04 174.23 557.11 172.44 554.40 170.33 C 569.60 145.80 584.31 120.97 599.36 96.35 C 618.67 64.19 638.39 32.26 657.53 0.00 M 687.87 53.79 C 689.96 53.70 691.98 53.11 694.02 52.60 C 695.76 52.79 697.26 53.85 698.86 54.53 C 698.45 58.27 696.02 61.28 694.23 64.45 C 692.51 67.10 691.06 69.94 689.01 72.35 C 687.34 72.75 685.62 72.60 683.94 72.66 C 687.47 74.88 690.76 77.55 694.66 79.14 C 694.66 77.48 694.09 75.56 695.18 74.09 C 698.20 68.64 701.11 63.11 704.86 58.11 C 706.32 59.41 707.84 60.66 709.42 61.83 C 709.87 63.90 710.24 65.99 710.60 68.08 C 712.02 67.14 712.71 65.56 713.56 64.13 C 714.28 64.84 715.01 65.57 715.73 66.30 L 717.30 64.83 L 717.35 66.95 C 714.86 72.97 710.77 78.18 707.42 83.74 C 706.22 83.77 705.03 83.80 703.84 83.83 C 703.73 84.16 703.51 84.80 703.40 85.12 C 707.92 87.24 711.95 90.26 716.25 92.80 C 718.23 93.84 720.06 96.35 722.55 95.49 C 723.97 94.30 724.87 92.64 725.98 91.17 C 722.98 92.20 719.85 92.25 716.80 91.42 C 715.26 90.14 712.40 89.44 712.37 87.08 C 713.51 84.31 715.20 81.82 716.75 79.26 C 720.03 79.70 720.63 83.47 720.52 86.19 C 722.25 83.22 725.08 80.66 725.63 77.15 C 725.29 77.49 724.62 78.15 724.28 78.48 C 722.32 78.61 720.36 78.61 718.42 78.48 C 718.28 75.31 720.77 72.92 722.42 70.48 C 723.38 70.38 724.35 70.36 725.33 70.40 C 726.58 71.61 727.95 72.71 729.06 74.07 C 729.83 76.13 730.19 78.33 730.92 80.42 C 731.81 78.37 733.21 76.42 733.43 74.15 C 728.55 71.13 723.69 68.02 718.75 65.11 C 718.59 64.82 718.28 64.24 718.12 63.95 C 715.78 65.62 714.19 62.58 713.10 60.93 C 711.51 60.33 709.15 60.07 709.09 57.90 C 707.98 57.80 706.88 57.69 705.79 57.59 C 702.02 54.49 697.69 52.13 693.56 49.55 C 690.59 48.22 689.40 52.02 687.87 53.79 M 745.96 82.66 C 740.40 86.83 734.96 91.16 729.45 95.40 C 727.88 96.74 725.71 96.41 723.82 96.66 C 726.16 98.83 729.05 100.22 731.76 101.84 C 730.85 100.28 730.14 98.61 730.33 96.76 C 731.88 95.60 733.41 94.41 734.95 93.23 C 736.83 94.44 738.72 95.64 740.66 96.78 C 740.62 98.88 740.48 100.98 740.22 103.07 C 739.30 103.80 737.75 104.28 738.18 105.76 C 740.67 107.53 743.45 108.85 745.77 110.87 C 744.16 101.14 748.42 91.77 748.53 82.10 C 747.89 82.24 746.60 82.52 745.96 82.66 Z" />
<path fill="#d9e021" stroke="#d9e021" stroke-width="0.09375" opacity="1.00" d=" M 1445.03 41.11 C 1448.55 39.10 1451.79 36.50 1455.66 35.11 C 1497.86 104.35 1539.41 174.00 1581.78 243.13 C 1579.88 245.28 1577.19 246.35 1574.83 247.85 C 1523.37 278.95 1471.89 310.02 1420.48 341.19 C 1419.97 341.37 1418.96 341.74 1418.45 341.93 C 1376.86 273.02 1335.21 204.14 1293.51 135.30 C 1293.42 134.43 1293.36 133.56 1293.32 132.69 C 1344.00 102.36 1394.41 71.57 1445.03 41.11 M 1465.73 107.70 C 1463.13 109.50 1460.24 110.78 1457.53 112.35 C 1457.37 112.85 1457.06 113.86 1456.91 114.37 C 1457.42 114.50 1458.44 114.76 1458.95 114.89 C 1461.49 120.24 1465.08 124.99 1467.80 130.26 C 1468.76 131.78 1468.07 133.69 1468.36 135.36 C 1473.81 131.46 1479.72 128.24 1485.64 125.15 C 1485.81 122.87 1485.13 120.73 1483.87 118.85 C 1482.30 122.50 1480.69 126.14 1477.32 128.55 C 1475.84 128.52 1474.39 128.46 1472.95 128.38 C 1471.68 125.47 1468.82 122.95 1469.52 119.51 C 1471.99 119.49 1474.44 119.97 1476.81 120.72 C 1475.12 117.99 1473.54 115.19 1471.57 112.66 C 1471.52 113.51 1471.43 115.20 1471.38 116.05 C 1470.73 116.89 1470.10 117.74 1469.48 118.59 C 1468.61 118.53 1467.76 118.46 1466.92 118.40 C 1465.65 115.91 1464.37 113.42 1463.24 110.86 C 1465.11 109.80 1466.94 108.60 1468.99 107.85 C 1471.07 107.57 1473.14 108.39 1475.23 108.62 C 1474.59 107.19 1473.95 105.79 1473.26 104.40 C 1470.29 104.04 1468.11 106.36 1465.73 107.70 M 1443.27 121.39 C 1439.71 123.20 1436.38 125.40 1432.90 127.34 C 1437.53 126.74 1439.23 131.33 1441.23 134.51 C 1443.55 138.83 1446.94 142.77 1447.42 147.85 C 1450.14 145.98 1453.12 144.49 1455.93 142.71 C 1458.97 141.21 1462.02 139.60 1464.58 137.32 C 1464.06 135.65 1463.63 133.98 1463.24 132.29 C 1462.86 132.35 1462.11 132.47 1461.74 132.52 C 1461.45 136.67 1458.37 139.48 1455.16 141.64 C 1454.35 141.65 1452.75 141.66 1451.95 141.67 C 1450.37 138.71 1447.41 136.00 1448.45 132.33 C 1450.85 132.29 1453.31 132.66 1455.19 134.33 C 1455.20 134.04 1455.23 133.46 1455.24 133.18 C 1453.37 131.06 1452.18 128.48 1451.05 125.93 C 1450.72 125.78 1450.07 125.47 1449.74 125.32 C 1449.79 127.50 1449.62 129.70 1448.28 131.51 C 1447.76 131.58 1446.73 131.71 1446.22 131.78 C 1444.55 129.29 1442.20 126.81 1442.32 123.62 C 1443.92 122.24 1445.91 121.42 1447.88 120.70 C 1450.01 120.49 1452.04 121.57 1454.15 121.90 C 1453.56 120.23 1452.62 118.72 1451.61 117.29 C 1448.25 117.23 1446.01 119.94 1443.27 121.39 M 1428.26 130.19 C 1423.30 133.52 1418.00 136.28 1412.95 139.44 C 1417.62 139.21 1419.48 144.21 1421.62 147.48 C 1423.65 151.70 1427.94 155.43 1426.32 160.59 C 1428.72 159.07 1431.16 157.59 1433.62 156.14 C 1433.65 155.70 1433.70 154.81 1433.73 154.37 C 1430.30 152.59 1428.47 148.83 1427.27 145.34 C 1429.48 145.08 1431.73 145.15 1433.92 145.68 C 1433.70 144.66 1433.51 143.65 1433.34 142.63 C 1432.09 140.77 1430.82 138.93 1429.46 137.16 C 1430.08 140.07 1428.84 142.62 1426.94 144.77 C 1424.97 142.51 1422.93 140.04 1422.23 137.07 C 1422.16 134.11 1426.05 133.95 1427.89 132.45 C 1430.31 132.63 1432.66 133.36 1435.06 133.77 C 1434.10 132.11 1432.90 130.61 1431.68 129.15 C 1430.50 129.41 1429.24 129.45 1428.26 130.19 M 1405.14 144.38 C 1401.27 146.49 1397.51 148.79 1393.78 151.12 C 1394.84 151.74 1395.95 152.32 1397.10 152.86 C 1400.04 157.27 1402.75 161.82 1405.45 166.39 C 1406.37 167.70 1406.60 169.27 1406.54 170.85 C 1410.05 170.95 1412.92 168.79 1415.50 166.66 C 1414.61 166.55 1412.83 166.32 1411.94 166.20 C 1410.26 163.36 1408.05 160.77 1407.13 157.55 C 1408.34 156.69 1409.81 156.46 1411.28 156.40 C 1412.16 156.96 1413.06 157.51 1413.98 158.05 C 1413.51 154.72 1411.36 152.06 1409.48 149.42 C 1409.32 149.77 1408.98 150.46 1408.81 150.81 C 1411.05 153.26 1407.66 156.78 1404.88 155.49 C 1404.03 152.77 1401.73 150.58 1402.27 147.51 C 1404.38 146.42 1406.50 145.23 1408.85 144.70 C 1410.89 145.04 1412.92 145.52 1414.99 145.84 C 1413.95 144.38 1412.94 142.91 1412.06 141.37 C 1409.29 140.98 1407.43 143.29 1405.14 144.38 M 1380.39 158.73 C 1377.61 160.49 1374.48 162.49 1373.64 165.90 C 1370.59 172.26 1374.18 180.85 1380.89 183.10 C 1384.79 184.18 1389.29 183.98 1392.47 181.18 C 1399.18 177.39 1400.65 167.10 1395.55 161.46 C 1392.10 156.90 1385.23 156.18 1380.39 158.73 M 1364.34 168.91 C 1364.06 169.50 1363.52 170.70 1363.25 171.30 C 1358.48 171.49 1353.04 173.88 1351.66 178.84 C 1348.53 185.65 1353.01 194.29 1359.97 196.51 C 1365.04 197.54 1370.65 196.01 1373.73 191.67 C 1375.10 189.20 1376.91 185.58 1374.77 183.05 C 1374.31 186.43 1373.46 189.76 1371.10 192.33 C 1368.39 192.44 1365.34 193.28 1362.93 191.75 C 1359.16 189.01 1356.00 184.77 1355.55 180.04 C 1354.96 177.29 1356.70 175.10 1358.66 173.43 C 1360.43 173.42 1362.25 173.29 1364.05 173.53 C 1366.02 174.29 1367.79 175.61 1369.97 175.81 C 1368.29 173.40 1367.25 170.08 1364.34 168.91 Z" />
<path fill="#d9e021" stroke="#d9e021" stroke-width="0.09375" opacity="1.00" d=" M 737.24 93.29 C 736.93 90.29 740.03 88.35 742.71 88.24 C 742.36 90.44 741.93 92.63 741.40 94.80 C 740.01 94.29 738.62 93.79 737.24 93.29 Z" />
<path fill="#d9e021" stroke="#d9e021" stroke-width="0.09375" opacity="1.00" d=" M 1035.10 155.75 C 1046.44 157.15 1057.81 158.49 1069.08 160.42 C 1066.62 166.76 1064.13 173.24 1063.52 180.07 C 1061.25 195.40 1060.51 210.91 1058.17 226.23 C 1053.34 260.13 1049.51 294.16 1046.15 328.23 C 1044.58 338.56 1048.05 348.90 1053.24 357.72 C 1059.29 369.06 1072.59 373.95 1078.78 385.21 C 1084.22 393.79 1084.78 404.14 1085.37 413.98 C 1083.92 441.23 1073.53 467.72 1057.26 489.51 C 1054.79 492.85 1051.61 495.88 1047.58 497.18 C 1041.27 499.10 1034.59 499.46 1028.04 499.32 C 1014.37 498.86 1000.47 496.95 987.98 491.08 C 980.51 487.90 976.46 480.18 974.08 472.84 C 966.29 449.17 961.62 423.71 966.05 398.89 C 968.44 388.76 972.72 378.68 980.41 371.43 C 986.52 365.21 995.24 362.56 1001.54 356.58 C 1011.84 347.70 1016.23 334.02 1018.33 321.00 C 1020.89 306.09 1021.65 290.95 1023.71 275.98 C 1025.48 257.24 1028.74 238.69 1030.44 219.94 C 1032.15 206.66 1033.38 193.32 1034.74 180.00 C 1036.17 172.01 1036.14 163.78 1035.10 155.75 M 1024.47 414.28 C 1021.65 420.88 1019.97 427.93 1019.03 435.03 C 1018.24 439.00 1017.33 442.98 1017.35 447.05 C 1016.48 457.85 1013.86 469.17 1017.62 479.70 C 1018.03 479.64 1018.85 479.50 1019.26 479.44 C 1021.32 475.86 1022.27 471.82 1023.33 467.87 C 1027.29 450.43 1029.59 432.37 1027.41 414.52 C 1026.41 414.44 1025.44 414.36 1024.47 414.28 M 992.84 418.66 C 989.65 428.47 990.39 438.87 990.65 449.02 C 991.32 455.90 992.60 462.72 994.95 469.23 C 995.64 469.20 996.36 469.18 997.09 469.17 C 1000.71 462.70 999.38 455.08 1000.29 448.02 C 999.31 438.07 999.87 427.49 995.39 418.29 C 994.53 418.41 993.68 418.53 992.84 418.66 M 1051.23 431.13 C 1045.86 442.13 1041.30 453.77 1039.88 466.01 C 1039.41 469.08 1038.68 472.55 1040.74 475.24 C 1044.85 472.35 1046.61 467.43 1048.60 463.03 C 1052.66 451.44 1057.87 439.65 1056.69 427.07 C 1053.79 426.60 1052.54 429.11 1051.23 431.13 Z" />
<path fill="#d9e021" stroke="#d9e021" stroke-width="0.09375" opacity="1.00" d=" M 1379.91 160.43 C 1381.63 160.37 1383.37 160.34 1385.13 160.32 C 1389.80 163.95 1393.72 169.01 1394.29 175.08 C 1393.99 176.98 1393.01 178.66 1392.24 180.39 C 1389.44 180.65 1386.25 181.02 1384.04 178.91 C 1379.77 174.86 1376.35 169.00 1377.66 162.92 C 1378.40 162.09 1379.15 161.26 1379.91 160.43 Z" />
<path fill="#d9e021" stroke="#d9e021" stroke-width="0.09375" opacity="1.00" d=" M 515.54 364.55 C 521.82 361.64 527.89 358.31 534.09 355.25 C 536.03 363.47 541.74 369.95 545.39 377.40 C 554.64 395.02 564.12 412.54 572.51 430.60 C 574.58 434.55 575.84 438.95 578.68 442.48 C 580.18 442.89 581.69 443.32 583.21 443.75 C 588.92 451.81 592.34 461.50 599.62 468.41 C 605.25 473.16 611.73 476.74 618.44 479.72 C 628.26 483.55 639.35 481.60 648.98 486.11 C 654.74 489.33 659.43 494.11 663.56 499.18 C 670.16 506.69 676.94 514.04 682.98 522.02 C 698.66 543.77 713.95 565.95 725.91 590.02 C 729.13 596.35 732.51 602.83 733.21 610.01 C 732.89 615.56 730.37 620.60 727.00 624.91 C 717.79 635.22 706.59 643.49 695.18 651.19 C 680.49 660.44 664.80 668.29 648.10 673.19 C 646.04 673.73 643.98 674.26 641.90 674.74 L 641.19 675.27 C 639.10 675.71 637.03 676.21 634.98 676.76 C 626.02 679.68 616.31 682.06 606.92 680.00 C 597.11 674.41 593.00 663.06 588.57 653.30 C 572.86 620.59 561.59 585.74 555.16 550.04 C 553.65 541.81 552.65 532.65 556.88 525.01 C 561.64 515.75 568.19 506.74 568.63 495.97 C 568.85 488.63 569.07 481.01 566.40 474.04 C 564.52 467.75 561.15 462.06 558.67 456.02 C 559.12 453.83 560.66 452.06 561.65 450.10 C 553.07 433.53 543.60 417.43 535.17 400.78 C 530.71 391.61 526.30 382.40 521.31 373.50 C 519.60 370.38 518.41 366.82 515.54 364.55 M 650.01 517.03 C 646.59 521.08 645.01 526.27 642.92 531.06 C 629.61 562.15 616.48 593.31 603.17 624.39 C 602.22 627.35 600.89 630.69 602.49 633.68 C 604.03 633.43 606.27 634.20 607.17 632.49 C 611.07 627.03 612.93 620.48 615.73 614.45 C 628.28 584.99 640.88 555.53 653.32 526.01 C 654.76 523.05 654.72 519.71 654.64 516.50 C 653.13 516.52 651.17 515.70 650.01 517.03 M 625.07 524.77 C 623.94 526.79 622.64 528.73 621.76 530.89 C 612.73 552.33 603.46 573.67 594.45 595.13 C 592.57 599.69 589.88 604.20 590.29 609.33 C 591.67 610.31 593.35 610.46 595.02 610.55 C 596.40 608.64 597.82 606.73 598.74 604.55 C 609.06 580.29 619.42 556.05 629.65 531.76 C 630.79 529.58 630.43 527.09 630.26 524.75 C 628.53 524.52 626.78 524.36 625.07 524.77 M 664.45 532.32 C 661.17 536.70 659.08 541.77 656.99 546.78 C 643.25 578.88 629.70 611.07 615.96 643.17 C 613.83 647.91 611.42 652.97 612.51 658.32 C 613.58 658.42 614.65 658.52 615.73 658.64 C 617.87 656.38 619.76 653.85 620.99 650.98 C 635.16 617.59 649.39 584.22 663.58 550.85 C 665.97 545.00 669.49 539.13 668.64 532.57 C 667.23 532.47 665.84 532.39 664.45 532.32 M 596.90 536.93 C 591.20 550.62 585.25 564.20 579.59 577.89 C 577.65 583.03 583.38 584.56 587.22 583.67 C 593.48 570.38 598.87 556.68 604.71 543.20 C 605.53 541.55 606.06 539.62 605.33 537.84 C 603.68 535.98 601.22 535.36 598.83 535.36 C 598.35 535.75 597.38 536.54 596.90 536.93 M 672.93 558.32 C 660.08 588.65 647.07 618.91 634.32 649.27 C 633.12 651.81 633.40 654.66 633.59 657.37 C 634.89 657.41 636.21 657.65 637.52 657.43 C 639.95 655.24 641.29 652.16 642.60 649.23 C 654.91 620.29 667.23 591.35 679.53 562.40 C 680.95 558.92 682.41 555.23 681.51 551.41 C 679.96 551.42 678.43 551.43 676.90 551.46 C 675.38 553.63 673.96 555.87 672.93 558.32 M 688.48 571.42 C 686.40 573.68 685.66 576.77 684.42 579.51 C 675.79 599.58 667.32 619.71 658.69 639.79 C 657.52 642.46 657.89 647.62 661.77 647.27 C 666.76 643.84 667.60 637.49 670.22 632.48 C 677.93 614.12 685.82 595.84 693.56 577.50 C 694.62 575.20 694.63 572.61 693.48 570.35 C 691.79 570.50 689.59 569.74 688.48 571.42 M 700.74 592.46 C 698.66 593.47 698.10 595.81 697.24 597.75 C 694.07 605.82 691.15 613.99 687.91 622.04 C 687.13 624.03 686.06 626.05 686.39 628.27 C 687.96 630.50 692.49 631.77 693.61 628.49 C 696.67 620.76 699.59 612.97 702.59 605.21 C 703.55 601.57 705.89 598.34 705.84 594.47 C 704.19 593.70 702.63 592.35 700.74 592.46 Z" />
<path fill="#d9e021" stroke="#d9e021" stroke-width="0.09375" opacity="1.00" d=" M 1579.96 781.41 C 1590.22 779.95 1600.65 780.16 1610.90 778.63 C 1615.40 778.42 1619.92 778.13 1624.45 778.36 C 1623.38 792.60 1621.76 806.78 1620.51 821.00 C 1619.22 839.70 1616.72 858.28 1615.47 876.99 C 1613.94 886.61 1614.15 896.43 1612.60 906.05 C 1612.19 912.72 1611.67 919.39 1610.70 926.00 C 1609.63 944.04 1607.37 961.97 1605.89 979.97 C 1605.37 989.63 1603.94 999.18 1603.40 1008.85 C 1603.27 1010.36 1602.58 1011.74 1602.11 1013.17 C 1590.01 1012.99 1578.00 1014.36 1565.93 1014.46 C 1557.34 1015.96 1548.58 1015.02 1539.94 1015.98 C 1532.99 1016.75 1525.92 1016.02 1519.03 1017.20 C 1514.37 1017.59 1509.68 1017.39 1505.05 1017.91 C 1497.73 1018.82 1490.30 1017.96 1483.03 1019.28 C 1473.23 1019.36 1463.49 1020.47 1453.69 1020.53 C 1448.30 1004.24 1443.22 987.86 1438.12 971.48 C 1435.24 962.75 1432.61 953.95 1429.80 945.20 C 1428.91 944.88 1428.04 944.58 1427.18 944.29 L 1428.92 944.77 C 1429.25 938.78 1424.06 933.58 1426.15 927.65 C 1425.58 928.94 1425.05 930.26 1424.54 931.60 C 1424.11 930.48 1423.73 929.37 1423.38 928.26 C 1423.70 926.47 1423.42 924.71 1422.82 923.03 C 1413.90 894.92 1405.02 866.80 1396.16 838.66 C 1393.82 831.39 1391.62 824.08 1389.23 816.83 C 1387.34 810.09 1384.39 803.60 1383.39 796.66 C 1393.63 796.79 1403.69 794.50 1413.91 794.52 C 1419.94 793.84 1426.03 793.78 1432.02 792.77 C 1440.75 792.43 1449.50 791.95 1458.16 790.84 C 1498.81 788.22 1539.32 784.12 1579.96 781.41 Z" />
<path fill="#d9e021" stroke="#d9e021" stroke-width="0.09375" opacity="1.00" d=" M 1741.67 894.80 C 1749.66 894.68 1757.67 894.91 1765.67 894.68 C 1766.94 901.40 1765.78 908.32 1766.56 915.12 C 1768.35 916.03 1770.03 917.15 1771.56 918.48 C 1771.89 923.66 1772.41 928.83 1772.27 934.04 C 1772.44 935.12 1771.99 937.34 1773.72 937.34 C 1778.28 938.37 1783.24 938.03 1787.30 940.75 C 1787.76 942.23 1788.26 943.73 1788.77 945.25 C 1815.42 951.52 1839.37 969.07 1852.99 992.88 C 1857.32 1001.07 1860.64 1009.78 1863.20 1018.68 C 1865.02 1025.40 1864.00 1032.38 1864.39 1039.24 C 1867.69 1040.26 1869.49 1043.60 1869.47 1046.94 C 1869.69 1056.29 1869.57 1065.65 1869.71 1075.00 C 1870.86 1091.96 1870.71 1109.05 1869.51 1126.00 C 1869.11 1132.35 1869.86 1138.73 1869.16 1145.06 C 1868.04 1151.18 1869.16 1157.43 1868.36 1163.58 C 1866.91 1172.40 1863.87 1181.83 1856.14 1187.14 C 1842.01 1197.06 1824.80 1201.13 1808.10 1204.34 C 1782.05 1209.28 1755.40 1209.27 1729.00 1208.27 C 1709.32 1206.53 1689.26 1204.52 1670.73 1197.20 C 1662.29 1193.62 1653.72 1189.24 1647.98 1181.85 C 1642.43 1174.08 1642.26 1164.11 1642.36 1154.95 C 1642.58 1147.66 1641.44 1140.44 1641.43 1133.17 C 1639.69 1121.88 1639.78 1110.43 1639.33 1099.05 C 1637.98 1091.07 1638.91 1082.97 1638.70 1074.94 C 1638.84 1069.31 1638.28 1063.65 1639.15 1058.07 C 1639.69 1053.63 1639.08 1049.12 1639.71 1044.70 C 1639.98 1042.56 1642.06 1041.59 1643.58 1040.41 C 1644.18 1020.99 1648.64 1000.60 1661.23 985.27 C 1666.75 978.20 1673.00 971.76 1679.52 965.62 C 1691.30 955.85 1705.37 948.79 1720.30 945.37 C 1720.74 943.80 1721.21 942.24 1721.67 940.69 C 1725.78 937.91 1730.90 938.38 1735.59 937.54 C 1738.08 931.87 1735.09 925.40 1736.70 919.49 C 1737.64 917.51 1739.57 916.34 1741.45 915.36 C 1741.63 914.78 1742.01 913.64 1742.19 913.07 C 1741.20 907.03 1741.73 900.88 1741.67 894.80 M 1735.06 961.08 C 1732.42 962.08 1729.41 961.93 1726.94 963.29 C 1724.27 962.04 1722.03 959.50 1718.80 960.42 C 1716.47 962.82 1712.82 962.72 1709.99 964.26 C 1690.70 972.55 1673.74 986.47 1662.29 1004.11 C 1658.11 1009.79 1655.19 1016.33 1653.41 1023.14 C 1652.28 1027.04 1652.89 1031.28 1651.16 1035.04 C 1649.72 1038.20 1649.94 1042.09 1651.96 1044.96 C 1656.22 1051.24 1653.52 1059.03 1653.65 1066.01 C 1653.88 1080.66 1653.13 1095.32 1653.72 1109.98 C 1654.75 1118.92 1654.01 1127.96 1655.50 1136.87 C 1656.83 1136.61 1658.13 1136.13 1659.25 1135.30 C 1675.05 1124.41 1693.47 1118.05 1712.05 1113.75 C 1717.97 1112.35 1724.09 1112.06 1730.04 1110.83 C 1744.35 1109.55 1758.72 1109.32 1773.08 1109.92 C 1793.49 1112.09 1813.92 1116.36 1832.73 1124.84 C 1837.54 1127.21 1842.68 1129.06 1846.96 1132.41 C 1849.61 1134.14 1851.96 1137.18 1855.52 1136.54 C 1855.72 1124.36 1855.34 1112.18 1855.63 1100.00 C 1855.60 1089.36 1855.96 1078.66 1854.69 1068.08 C 1854.96 1059.37 1852.84 1049.94 1857.29 1041.92 C 1859.40 1034.32 1855.35 1026.83 1855.40 1019.20 C 1855.11 1020.09 1854.85 1021.00 1854.62 1021.93 C 1854.79 1017.08 1852.09 1012.86 1850.13 1008.63 C 1844.59 998.37 1837.35 989.03 1828.77 981.15 C 1820.20 973.19 1809.75 967.62 1799.16 962.85 C 1795.17 961.34 1791.18 958.86 1786.76 959.42 C 1784.96 961.71 1781.84 962.97 1779.08 961.65 C 1772.05 958.81 1764.37 959.28 1756.96 959.17 C 1749.63 959.23 1742.14 958.90 1735.06 961.08 M 1734.99 1123.54 C 1721.61 1125.01 1708.21 1127.49 1695.64 1132.41 C 1687.98 1135.57 1680.29 1139.31 1674.47 1145.34 C 1670.23 1149.32 1667.03 1154.99 1667.63 1160.96 C 1668.06 1165.86 1670.87 1170.26 1674.37 1173.61 C 1682.04 1181.65 1692.71 1185.65 1703.00 1189.17 C 1719.79 1194.42 1737.44 1196.61 1755.00 1196.52 C 1773.23 1196.78 1791.52 1194.46 1808.99 1189.21 C 1817.29 1186.42 1825.51 1183.03 1832.67 1177.90 C 1838.08 1173.68 1843.42 1168.21 1844.22 1161.06 C 1844.56 1155.93 1842.50 1150.76 1839.01 1147.02 C 1832.18 1139.39 1822.74 1134.81 1813.25 1131.41 C 1804.84 1128.00 1795.81 1126.61 1786.98 1124.80 C 1775.06 1123.22 1763.08 1122.07 1751.05 1122.42 C 1745.65 1122.22 1740.38 1123.64 1734.99 1123.54 Z" />
<path fill="#d9e021" stroke="#d9e021" stroke-width="0.09375" opacity="1.00" d=" M 390.79 1165.56 C 402.28 1140.66 413.95 1115.84 425.86 1091.13 C 433.91 1094.84 441.82 1098.85 449.76 1102.78 C 441.08 1120.11 432.40 1137.43 423.52 1154.66 C 413.72 1173.34 404.19 1192.17 395.30 1211.31 C 390.91 1220.47 386.20 1229.46 381.31 1238.36 C 371.74 1256.63 363.34 1275.50 353.37 1293.56 C 351.19 1298.12 348.99 1302.92 348.59 1308.01 C 350.28 1316.51 351.28 1325.48 355.87 1333.02 C 358.54 1337.69 362.05 1341.95 363.70 1347.14 C 366.26 1355.10 370.00 1362.74 371.23 1371.08 C 373.43 1389.05 367.39 1407.78 355.07 1421.06 C 344.30 1433.66 327.39 1440.13 311.01 1439.73 C 298.26 1439.96 285.80 1435.92 274.46 1430.36 C 259.96 1423.33 246.52 1412.83 238.77 1398.45 C 232.84 1387.43 229.95 1374.49 232.36 1362.07 C 235.63 1339.91 251.34 1319.75 272.88 1312.84 C 278.00 1311.63 282.92 1309.74 287.90 1308.10 C 295.50 1306.53 303.59 1307.25 310.81 1304.00 C 317.44 1301.00 325.13 1298.82 329.49 1292.52 C 334.69 1285.07 337.46 1276.30 341.47 1268.21 C 350.07 1250.72 358.77 1233.26 366.44 1215.33 C 374.43 1198.68 383.01 1182.32 390.79 1165.56 Z" />
<path fill="#d9e021" stroke="#d9e021" stroke-width="0.09375" opacity="1.00" d=" M 1742.95 1126.28 C 1749.95 1125.41 1757.06 1125.50 1764.08 1126.27 C 1774.34 1126.35 1784.45 1128.33 1794.47 1130.42 C 1805.07 1133.06 1815.74 1136.74 1824.51 1143.45 C 1828.77 1146.92 1832.97 1151.25 1833.93 1156.89 C 1835.14 1162.11 1832.54 1167.35 1829.30 1171.29 C 1824.28 1176.51 1817.95 1180.23 1811.39 1183.15 C 1796.07 1189.44 1779.53 1192.23 1763.05 1192.85 C 1754.73 1194.40 1746.34 1192.50 1737.99 1192.46 C 1728.55 1191.76 1719.28 1189.80 1710.10 1187.62 C 1700.36 1184.63 1690.55 1180.94 1682.62 1174.38 C 1677.70 1170.10 1673.46 1163.82 1674.67 1156.99 C 1676.08 1151.19 1680.05 1146.27 1684.93 1142.94 C 1693.18 1136.78 1703.08 1133.36 1712.94 1130.76 C 1722.81 1128.54 1732.80 1126.57 1742.95 1126.28 M 1733.50 1130.72 C 1721.53 1132.54 1709.48 1135.17 1698.63 1140.72 C 1692.58 1144.11 1686.30 1148.28 1683.62 1154.99 C 1683.08 1159.17 1682.61 1163.99 1685.37 1167.55 C 1688.85 1172.79 1694.49 1175.96 1699.84 1178.99 C 1714.88 1186.04 1731.55 1188.61 1747.99 1189.52 C 1755.31 1189.36 1762.71 1190.06 1769.96 1188.64 C 1779.30 1188.21 1788.50 1186.15 1797.45 1183.48 C 1806.05 1180.59 1814.89 1176.96 1821.12 1170.10 C 1824.28 1167.03 1826.32 1162.62 1825.75 1158.16 C 1825.23 1152.05 1820.29 1147.72 1815.78 1144.20 C 1807.74 1138.86 1798.55 1135.28 1789.10 1133.43 C 1770.96 1128.88 1752.00 1128.86 1733.50 1130.72 Z" />
<path fill="#d9e021" stroke="#d9e021" stroke-width="0.09375" opacity="1.00" d=" M 1740.02 1132.80 C 1760.13 1131.38 1780.85 1132.62 1799.79 1140.05 C 1805.92 1142.79 1812.23 1146.10 1816.32 1151.62 C 1819.11 1155.11 1819.09 1159.98 1818.20 1164.15 C 1814.83 1171.43 1807.47 1175.53 1800.48 1178.72 C 1788.65 1183.68 1775.83 1185.81 1763.09 1186.51 C 1752.23 1186.61 1741.23 1187.06 1730.53 1184.79 C 1719.75 1183.18 1709.02 1179.99 1699.72 1174.21 C 1695.64 1171.03 1690.95 1167.45 1690.04 1162.03 C 1689.14 1157.94 1690.58 1153.51 1693.40 1150.47 C 1700.66 1142.21 1711.65 1138.66 1721.97 1135.96 C 1727.84 1134.13 1734.02 1133.95 1740.02 1132.80 M 1743.49 1135.65 C 1732.94 1136.66 1722.30 1138.49 1712.56 1142.80 C 1706.61 1145.69 1699.91 1148.98 1697.30 1155.51 C 1695.18 1159.70 1697.12 1164.65 1699.99 1167.98 C 1704.73 1173.07 1711.26 1176.00 1717.75 1178.23 C 1725.19 1181.13 1733.15 1182.09 1740.99 1183.34 C 1759.89 1184.55 1779.48 1183.50 1797.08 1175.89 C 1802.96 1173.08 1809.30 1169.39 1811.77 1163.00 C 1813.72 1157.85 1810.65 1152.50 1806.75 1149.26 C 1797.88 1141.73 1786.21 1138.84 1775.01 1136.96 C 1764.63 1134.87 1753.99 1135.48 1743.49 1135.65 Z" />
<path fill="#d9e021" stroke="#d9e021" stroke-width="0.09375" opacity="1.00" d=" M 1720.97 1143.01 C 1732.45 1138.75 1744.79 1137.34 1756.99 1137.48 C 1769.28 1137.43 1781.72 1139.17 1793.14 1143.88 C 1798.26 1145.93 1803.08 1149.12 1806.41 1153.58 C 1809.19 1157.43 1808.87 1163.10 1805.63 1166.59 C 1800.35 1172.73 1792.53 1175.73 1784.97 1177.97 C 1771.67 1181.88 1757.66 1182.17 1743.92 1181.32 C 1737.18 1180.27 1730.52 1178.83 1723.90 1177.23 C 1717.41 1174.58 1710.30 1172.03 1705.93 1166.24 C 1703.10 1162.92 1702.63 1157.65 1705.18 1154.07 C 1708.68 1148.41 1715.05 1145.49 1720.97 1143.01 Z" />
<path fill="#d9e021" stroke="#d9e021" stroke-width="0.09375" opacity="1.00" d=" M 478.90 1466.16 C 483.06 1464.80 486.89 1462.14 491.40 1462.21 C 491.72 1468.29 493.18 1474.23 493.79 1480.28 C 494.28 1480.54 495.24 1481.06 495.72 1481.32 C 495.25 1482.10 494.79 1482.89 494.32 1483.70 C 495.62 1490.64 496.39 1497.66 497.55 1504.63 C 502.92 1541.36 508.40 1578.07 513.94 1614.77 C 515.16 1623.97 516.51 1633.16 518.07 1642.32 C 519.04 1652.28 521.14 1662.10 522.25 1672.05 C 523.75 1679.06 524.05 1686.26 525.62 1693.25 C 480.91 1712.41 435.96 1731.02 391.17 1750.01 C 389.84 1750.33 388.51 1751.53 387.10 1751.12 C 383.89 1744.49 379.65 1738.43 375.95 1732.08 C 339.57 1672.12 303.25 1612.11 266.91 1552.13 C 266.24 1551.15 266.53 1549.95 266.50 1548.89 C 274.16 1547.00 281.21 1543.28 288.66 1540.73 C 352.08 1515.91 415.47 1490.96 478.90 1466.16 Z" />
<path fill="#d9e021" stroke="#d9e021" stroke-width="0.09375" opacity="1.00" d=" M 1222.74 1522.46 C 1223.90 1522.46 1225.13 1522.26 1226.29 1522.69 C 1268.18 1537.15 1310.18 1551.34 1352.09 1565.78 C 1368.98 1571.24 1385.58 1577.71 1402.60 1582.71 C 1403.26 1587.50 1400.67 1591.75 1399.36 1596.19 C 1375.53 1666.10 1351.48 1735.92 1327.71 1805.85 C 1326.73 1808.43 1325.84 1811.04 1325.23 1813.76 C 1321.44 1813.94 1318.15 1811.94 1314.65 1810.88 C 1260.11 1792.25 1205.58 1773.57 1151.04 1754.91 C 1149.20 1754.18 1147.32 1753.61 1145.39 1753.33 C 1144.94 1749.84 1146.38 1746.60 1147.54 1743.42 C 1171.90 1672.10 1196.36 1600.80 1220.70 1529.47 C 1221.59 1527.19 1222.31 1524.85 1222.74 1522.46 M 1217.58 1610.92 C 1217.97 1617.77 1225.47 1622.57 1231.95 1621.41 C 1233.79 1620.72 1235.54 1619.80 1237.43 1619.17 C 1237.48 1618.64 1237.60 1617.59 1237.66 1617.06 C 1234.89 1618.63 1231.97 1620.11 1228.69 1619.64 C 1226.58 1617.84 1224.00 1616.03 1223.92 1612.98 C 1223.09 1606.77 1226.32 1598.84 1233.08 1597.54 C 1234.96 1598.65 1237.48 1599.37 1238.22 1601.71 C 1239.43 1603.69 1239.02 1606.69 1241.23 1607.96 C 1241.71 1605.43 1242.25 1602.93 1242.87 1600.46 C 1238.59 1600.61 1236.20 1596.06 1232.03 1595.73 C 1223.70 1594.25 1216.13 1602.84 1217.58 1610.92 M 1248.76 1605.71 C 1243.01 1608.20 1240.11 1615.15 1241.90 1621.07 C 1243.39 1624.75 1246.24 1627.88 1250.16 1629.02 L 1250.73 1627.40 C 1249.43 1626.33 1247.75 1625.36 1247.63 1623.53 C 1246.61 1617.06 1249.47 1610.18 1254.72 1606.30 C 1256.26 1606.30 1257.82 1606.31 1259.39 1606.33 C 1261.19 1608.07 1262.61 1610.39 1262.41 1613.02 C 1262.03 1617.96 1260.43 1623.24 1256.53 1626.57 C 1255.07 1628.22 1252.10 1627.07 1251.24 1629.59 C 1259.26 1631.56 1268.22 1625.36 1268.29 1616.95 C 1268.69 1611.14 1263.92 1606.86 1259.09 1604.65 C 1255.62 1604.17 1251.88 1603.83 1248.76 1605.71 M 1275.30 1611.14 C 1276.57 1616.48 1273.29 1621.16 1271.93 1626.11 C 1270.64 1629.18 1270.07 1634.06 1265.65 1633.77 C 1266.46 1634.08 1267.28 1634.42 1268.12 1634.78 C 1270.73 1635.60 1273.34 1636.50 1275.84 1637.67 C 1274.58 1633.20 1276.37 1628.79 1278.73 1625.06 C 1279.40 1625.49 1280.73 1626.36 1281.39 1626.79 C 1281.84 1628.24 1282.30 1629.68 1282.80 1631.17 C 1284.40 1628.28 1285.81 1625.17 1285.75 1621.81 C 1284.81 1622.60 1283.90 1623.43 1283.04 1624.31 C 1282.11 1624.36 1280.24 1624.46 1279.31 1624.50 C 1279.06 1621.28 1280.34 1618.28 1281.65 1615.44 C 1283.10 1615.51 1284.56 1615.60 1286.04 1615.71 C 1287.49 1616.96 1289.20 1618.04 1290.26 1619.71 C 1291.18 1620.84 1291.55 1622.94 1293.46 1622.68 C 1293.54 1620.73 1293.54 1618.80 1293.43 1616.88 C 1287.13 1615.77 1281.54 1612.44 1275.30 1611.14 M 1294.87 1618.45 C 1295.73 1618.93 1296.61 1619.42 1297.52 1619.91 C 1298.04 1625.93 1294.63 1631.38 1292.98 1637.02 C 1292.58 1639.43 1290.13 1640.20 1289.07 1642.08 C 1293.16 1642.79 1296.77 1645.54 1301.00 1645.45 C 1299.88 1644.64 1298.39 1644.20 1297.67 1643.01 C 1297.25 1640.52 1298.22 1638.14 1299.29 1635.97 C 1299.41 1635.34 1299.66 1634.09 1299.78 1633.46 C 1300.88 1633.48 1302.00 1633.54 1303.14 1633.62 C 1303.85 1634.77 1304.13 1637.93 1306.16 1636.49 C 1307.32 1634.26 1307.85 1631.79 1308.55 1629.41 C 1308.17 1629.52 1307.42 1629.75 1307.05 1629.86 C 1306.12 1632.45 1303.24 1631.68 1301.11 1631.71 C 1301.54 1628.30 1302.66 1625.02 1304.75 1622.28 C 1306.48 1623.20 1308.40 1623.78 1310.14 1624.73 C 1312.57 1626.50 1313.85 1629.30 1315.07 1631.97 C 1315.50 1629.52 1315.70 1627.05 1315.67 1624.59 C 1312.55 1623.53 1309.39 1622.60 1306.23 1621.72 C 1302.51 1620.41 1298.90 1618.43 1294.87 1618.45 M 1317.83 1626.42 C 1318.87 1627.37 1321.15 1628.15 1320.17 1630.00 C 1318.35 1635.77 1316.61 1641.61 1314.06 1647.11 C 1313.07 1647.84 1312.10 1648.65 1312.00 1649.99 C 1317.87 1651.35 1323.27 1654.25 1329.11 1655.73 C 1332.50 1656.73 1333.42 1652.49 1333.73 1650.00 C 1330.25 1653.54 1324.99 1652.91 1320.68 1651.45 C 1320.38 1650.84 1319.77 1649.63 1319.47 1649.03 C 1320.44 1646.56 1321.46 1644.09 1321.89 1641.48 C 1323.52 1641.19 1325.07 1641.66 1326.37 1642.73 C 1326.51 1644.21 1326.71 1645.75 1326.93 1647.27 C 1328.53 1644.05 1330.33 1640.82 1330.61 1637.18 C 1328.74 1639.29 1326.14 1640.07 1323.36 1639.61 C 1323.44 1636.15 1324.98 1633.05 1326.66 1630.13 C 1328.37 1630.71 1330.14 1631.24 1331.79 1632.06 C 1334.60 1633.42 1334.18 1637.41 1337.14 1638.67 C 1337.31 1636.60 1337.44 1634.54 1337.60 1632.50 C 1335.11 1631.36 1332.56 1630.29 1329.80 1630.18 C 1329.47 1628.83 1328.15 1628.71 1327.08 1628.50 C 1323.91 1628.00 1321.14 1625.82 1317.83 1626.42 M 1341.20 1634.45 C 1342.02 1635.00 1342.85 1635.52 1343.66 1636.18 C 1344.41 1640.72 1341.28 1644.55 1340.37 1648.83 C 1339.08 1652.00 1338.73 1656.69 1334.34 1657.07 C 1337.79 1658.81 1341.54 1659.87 1345.14 1661.30 C 1348.46 1662.32 1351.68 1664.11 1355.29 1663.74 C 1356.06 1662.10 1356.92 1660.52 1357.84 1658.97 C 1354.04 1660.84 1349.83 1660.68 1345.73 1660.43 C 1341.24 1657.91 1344.84 1652.48 1346.33 1649.09 C 1349.57 1649.18 1350.79 1652.31 1350.78 1655.16 C 1352.44 1652.36 1353.78 1649.26 1353.89 1645.97 C 1351.94 1647.45 1349.64 1647.98 1347.24 1647.67 C 1347.47 1644.30 1348.37 1640.86 1350.72 1638.33 C 1354.76 1639.18 1358.84 1641.78 1358.91 1646.37 C 1359.66 1646.32 1360.43 1646.29 1361.22 1646.28 C 1361.27 1644.16 1361.29 1642.05 1361.28 1639.96 C 1357.99 1639.52 1354.90 1638.34 1351.79 1637.28 C 1348.29 1636.15 1345.05 1633.84 1341.20 1634.45 Z" />
<path fill="#d9e021" stroke="#d9e021" stroke-width="0.09375" opacity="1.00" d=" M 680.50 1881.98 C 685.19 1883.95 689.24 1887.11 693.69 1889.54 C 710.25 1899.82 727.17 1909.52 743.60 1920.00 L 657.88 1920.00 C 664.97 1907.08 673.16 1894.77 680.50 1881.98 Z" />
</g>
</svg>
